<?xml version="1.0" standalone="no"?><!DOCTYPE svg PUBLIC "-//W3C//DTD SVG 1.1//EN" "http://www.w3.org/Graphics/SVG/1.1/DTD/svg11.dtd"><svg height="512" legacy-metrics="false" node-id="1" sillyvg="true" template-height="512" template-width="512" version="1.1" viewBox="0 0 512 512" width="512" xmlns="http://www.w3.org/2000/svg" xmlns:xlink="http://www.w3.org/1999/xlink"><defs node-id="204"></defs><g node-id="403"><path d="M 375.47 94.89 C 373.83 96.23 373.51 98.42 372.67 100.30 C 371.08 103.87 369.22 107.08 364.70 107.59 C 362.31 107.86 360.10 107.08 359.64 108.75 C 359.23 110.22 361.13 111.23 361.60 111.74 C 363.60 113.87 365.14 116.11 364.98 119.83 C 364.76 124.47 361.77 130.55 364.65 131.24 C 366.76 131.75 368.11 127.63 368.84 126.29 C 371.22 121.97 372.60 118.81 377.07 117.34 C 378.44 116.89 381.91 117.28 382.29 115.23 C 382.66 113.13 379.81 112.37 379.00 111.29 C 377.72 109.62 376.91 107.07 376.94 104.14 C 376.99 101.39 378.10 97.94 377.74 95.97 C 377.72 95.07 376.86 94.09 375.47 94.89 Z" fill="#f7be4a" fill-rule="evenodd" group-id="1" node-id="210" stroke="none" target-height="36.64344" target-width="22.673553" target-x="359.61145" target-y="94.59356"></path><path d="M 83.61 55.93 C 84.42 57.88 83.67 59.96 83.52 62.02 C 83.24 65.91 83.36 69.62 87.10 72.20 C 89.08 73.57 91.40 73.93 91.01 75.62 C 90.69 77.11 88.53 77.10 87.87 77.32 C 85.10 78.26 82.68 79.51 81.08 82.86 C 79.08 87.06 78.84 93.83 75.97 93.07 C 73.87 92.53 74.63 88.26 74.62 86.73 C 74.56 81.80 74.84 78.36 71.59 74.95 C 70.60 73.91 67.35 72.61 68.00 70.63 C 68.66 68.60 71.53 69.28 72.75 68.71 C 74.67 67.84 76.59 65.98 77.94 63.38 C 79.21 60.94 79.86 57.37 81.10 55.81 C 81.54 55.02 82.76 54.56 83.61 55.93 Z" fill="#f7be4a" fill-rule="evenodd" group-id="1" node-id="212" stroke="none" target-height="38.013874" target-width="23.04248" target-x="67.97052" target-y="55.059124"></path><path d="M 219.11 85.01 C 217.35 86.05 214.64 86.71 214.99 89.11 C 215.44 92.15 219.21 91.13 221.08 92.15 C 224.23 93.88 224.66 98.91 226.56 102.78 C 227.06 103.78 227.60 105.19 229.36 104.95 C 231.62 104.64 231.47 102.39 231.35 99.77 C 231.15 95.07 231.88 90.81 234.46 88.59 C 236.02 87.26 238.28 87.42 237.91 84.85 C 237.54 82.31 235.28 83.14 233.16 82.55 C 229.76 81.61 228.10 77.69 226.56 73.81 C 226.22 72.94 225.98 71.73 225.63 71.31 C 224.38 69.81 221.35 70.17 220.75 72.41 C 220.42 73.66 221.12 75.18 221.27 76.67 C 221.58 80.07 220.92 82.70 219.11 85.01 Z" fill="#f7be4a" fill-rule="evenodd" group-id="1" node-id="214" stroke="none" target-height="34.516266" target-width="22.916992" target-x="214.992" target-y="70.42973"></path><path d="M 487.86 456.79 C 489.62 457.82 492.33 458.49 491.98 460.89 C 491.52 463.92 487.76 462.91 485.89 463.93 C 482.74 465.65 482.30 470.68 480.40 474.56 C 479.91 475.56 479.37 476.96 477.61 476.72 C 475.35 476.41 475.50 474.17 475.62 471.54 C 475.82 466.84 475.09 462.58 472.50 460.37 C 470.94 459.03 468.69 459.19 469.06 456.63 C 469.43 454.09 471.68 454.91 473.81 454.32 C 477.20 453.39 478.87 449.46 480.41 445.58 C 480.75 444.71 480.99 443.50 481.33 443.08 C 482.59 441.58 485.62 441.95 486.21 444.19 C 486.55 445.44 485.85 446.95 485.70 448.44 C 485.39 451.85 486.05 454.47 487.86 456.79 Z" fill="#f7be4a" fill-rule="evenodd" group-id="1" node-id="216" stroke="none" target-height="34.516327" target-width="22.916992" target-x="469.06" target-y="442.20468"></path><path d="M 5.01 91.64 C 4.07 94.28 5.30 95.86 4.04 98.72 C 3.34 100.33 -0.00 101.33 -0.00 103.08 C 0.01 105.40 3.88 105.11 5.12 106.72 C 6.22 108.14 5.55 111.69 7.94 111.80 C 10.36 111.89 9.75 107.19 11.05 104.94 C 11.87 103.48 14.52 103.03 14.33 100.98 C 14.19 99.59 11.32 99.23 10.29 98.41 C 8.14 96.69 8.71 93.39 7.43 91.42 C 6.38 90.92 5.88 91.31 5.01 91.64 Z" fill="#f7be4a" fill-rule="evenodd" group-id="1" node-id="218" stroke="none" target-height="20.604088" target-width="14.327" target-x="0" target-y="91.19191"></path><path d="M 239.29 125.05 C 238.83 127.81 240.31 129.15 239.57 132.18 C 239.16 133.89 236.05 135.46 236.36 137.18 C 236.78 139.47 240.53 138.51 242.04 139.88 C 243.37 141.08 243.34 144.69 245.70 144.38 C 248.10 144.05 246.68 139.53 247.56 137.09 C 248.12 135.50 250.65 134.60 250.10 132.61 C 249.72 131.27 246.83 131.42 245.67 130.79 C 243.25 129.47 243.24 126.12 241.63 124.41 C 240.51 124.10 240.10 124.57 239.29 125.05 Z" fill="#f7be4a" fill-rule="evenodd" group-id="1" node-id="220" stroke="none" target-height="20.068405" target-width="13.778549" target-x="236.36" target-y="124.3096"></path><path d="M 194.06 330.88 C 193.12 333.51 194.34 335.09 193.09 337.95 C 192.38 339.56 189.04 340.56 189.05 342.31 C 189.06 344.64 192.92 344.35 194.17 345.96 C 195.27 347.37 194.60 350.93 196.99 351.03 C 199.41 351.13 198.80 346.43 200.10 344.18 C 200.92 342.71 203.57 342.26 203.38 340.21 C 203.24 338.83 200.37 338.47 199.34 337.64 C 197.19 335.92 197.76 332.62 196.47 330.65 C 195.43 330.15 194.93 330.55 194.06 330.88 Z" fill="#f7be4a" fill-rule="evenodd" group-id="1" node-id="222" stroke="none" target-height="20.603546" target-width="14.326996" target-x="189.048" target-y="330.42545"></path></g><g node-id="404"><path d="M 293.07 147.39 L 361.49 147.39 L 361.49 509.88 L 293.07 509.88 Z" fill="#e34e6a" fill-rule="nonzero" group-id="2" node-id="227" stroke="none" target-height="362.48898" target-width="68.41699" target-x="293.07" target-y="147.389"></path><path d="M 37.47 190.16 C 54.53 188.04 71.10 185.43 86.66 181.80 C 93.81 209.92 102.10 236.88 109.49 264.76 C 110.46 265.69 111.97 263.48 113.03 262.51 C 121.19 255.00 129.60 246.85 138.11 239.04 C 152.35 225.95 168.21 213.56 184.09 201.42 C 194.33 193.58 205.24 185.85 216.56 178.26 C 222.52 174.27 228.88 169.50 235.86 168.62 C 247.78 167.11 248.74 177.21 249.04 187.27 C 249.70 209.70 246.22 230.97 241.32 248.36 C 239.51 254.81 237.71 260.22 234.89 265.08 C 226.87 278.94 213.75 290.83 201.45 300.77 C 185.49 313.67 165.74 326.80 146.79 338.39 C 132.84 346.93 116.97 354.48 99.20 360.25 C 91.01 362.92 83.98 365.57 73.48 364.76 C 37.28 361.97 39.15 318.23 37.47 279.87 C 36.10 248.83 36.26 219.47 37.47 190.16 Z" fill="#bad6e9" fill-rule="evenodd" group-id="2" node-id="229" stroke="none" target-height="196.39558" target-width="212.53876" target-x="36.500248" target-y="168.49123"></path><g node-id="405"><path d="M 37.47 190.16 C 54.53 188.04 71.10 185.43 86.66 181.80 C 93.81 209.92 102.10 236.88 109.49 264.76 C 110.46 265.69 111.97 263.48 113.03 262.51 C 121.19 255.00 129.60 246.85 138.11 239.04 C 152.35 225.95 168.21 213.56 184.09 201.42 C 194.33 193.58 205.24 185.85 216.56 178.26 C 222.52 174.27 228.88 169.50 235.86 168.62 C 247.78 167.11 248.74 177.21 249.04 187.27 C 249.70 209.70 246.22 230.97 241.32 248.36 C 239.51 254.81 237.71 260.22 234.89 265.08 C 226.87 278.94 213.75 290.83 201.45 300.77 C 185.49 313.67 165.74 326.80 146.79 338.39 C 132.84 346.93 116.97 354.48 99.20 360.25 C 91.01 362.92 83.98 365.57 73.48 364.76 C 37.28 361.97 39.15 318.23 37.47 279.87 C 36.10 248.83 36.26 219.47 37.47 190.16 Z" fill="#ffffff" fill-opacity="0.41" fill-rule="evenodd" group-id="2,3" node-id="233" stroke-linecap="butt" stroke-opacity="0.41" stroke-width="1" target-height="196.39558" target-width="212.53876" target-x="36.500248" target-y="168.49123"></path></g><g node-id="406"><path d="M 109.17 299.16 C 110.42 299.18 111.71 295.58 112.39 293.70 C 114.86 286.78 116.98 280.83 119.46 274.08 C 122.06 266.99 126.30 256.82 127.83 248.64 C 122.83 253.35 117.88 258.05 113.03 262.51 C 112.09 263.37 110.81 265.19 109.85 264.95 C 108.99 273.00 108.28 281.86 107.88 289.84 C 107.73 293.04 107.48 299.14 109.17 299.16 Z" fill="#1a4e72" fill-opacity="0.25" fill-rule="nonzero" group-id="2,4" node-id="238" stroke-linecap="butt" stroke-opacity="0.25" stroke-width="1" target-height="50.523987" target-width="20.057678" target-x="107.771324" target-y="248.639"></path></g><g node-id="407"><path d="M 45.06 216.75 C 59.50 212.53 75.69 206.46 91.48 200.01 C 90.05 194.75 88.64 189.47 87.27 184.15 C 75.31 185.81 63.46 187.18 51.71 188.24 C 47.01 188.93 42.26 189.57 37.47 190.16 C 37.11 198.88 36.85 207.60 36.69 216.37 C 36.90 216.71 37.13 217.03 37.40 217.36 C 39.74 219.08 42.66 217.46 45.06 216.75 Z" fill="#1a4e72" fill-opacity="0.25" fill-rule="nonzero" group-id="2,5" node-id="243" stroke-linecap="butt" stroke-opacity="0.25" stroke-width="1" target-height="33.974304" target-width="54.784996" target-x="36.693" target-y="184.15"></path></g><path d="M 53.36 202.07 C 53.36 204.68 51.24 206.79 48.64 206.79 C 46.03 206.79 43.92 204.68 43.92 202.07 C 43.92 199.47 46.03 197.36 48.64 197.36 C 51.24 197.36 53.36 199.47 53.36 202.07 Z" fill="#ffffff" fill-rule="nonzero" group-id="2" node-id="246" stroke="none" target-height="9.436005" target-width="9.434998" target-x="43.921" target-y="197.356"></path><path d="M 54.60 328.59 C 58.59 327.97 72.09 337.37 68.61 341.76 C 65.76 345.34 54.04 336.76 53.01 332.11 C 52.74 330.90 52.95 330.08 54.60 328.59 Z" fill="#ffffff" fill-rule="evenodd" group-id="2" node-id="248" stroke="none" target-height="14.029755" target-width="16.254822" target-x="52.911804" target-y="328.59"></path><path d="M 61.33 350.12 C 63.24 345.03 69.80 350.00 68.60 353.02 C 66.99 357.09 59.64 354.61 61.33 350.12 Z" fill="#ffffff" fill-rule="evenodd" group-id="2" node-id="250" stroke="none" target-height="7.0735474" target-width="7.620537" target-x="61.092384" target-y="348.00397"></path><path d="M 74.87 345.25 C 77.59 340.88 87.52 348.52 84.52 352.18 C 83.26 353.72 81.87 353.29 79.55 352.26 C 76.11 350.74 72.97 348.32 74.87 345.25 Z" fill="#ffffff" fill-rule="evenodd" group-id="2" node-id="252" stroke="none" target-height="9.21106" target-width="10.757996" target-x="74.2938" target-y="343.97354"></path><path d="M 43.12 157.30 C 43.12 157.30 92.86 170.84 90.86 179.07 C 98.61 147.07 85.71 126.69 83.96 123.32 C 80.12 115.95 74.60 110.78 66.59 104.79 C 60.83 100.48 50.43 91.93 46.44 98.04 C 44.31 101.29 47.60 105.86 50.05 108.71 C 53.03 112.20 57.65 114.66 59.95 117.84 C 60.72 121.27 45.05 150.26 43.51 152.41 C 42.41 153.96 42.12 155.51 43.12 157.30" fill="#ffcbd5" fill-rule="evenodd" group-id="2" node-id="254" stroke="none" target-height="83.16631" target-width="50.764786" target-x="42.52487" target-y="95.90868"></path><path d="M 39.79 73.53 C 41.28 73.13 54.36 72.29 56.51 74.17 C 59.23 76.56 57.79 88.61 57.79 93.14 C 57.79 97.91 58.12 107.12 59.40 112.11 C 60.75 117.39 64.36 123.99 67.11 129.48 C 73.03 141.25 78.91 151.66 84.48 162.27 C 86.22 165.59 87.28 167.53 88.66 170.63 C 90.89 175.65 92.63 182.31 87.69 185.75 C 84.52 187.96 73.48 188.13 68.40 188.32 C 52.60 188.91 41.47 188.97 25.32 188.32 C 16.71 187.97 5.44 188.05 3.45 181.89 C 2.33 178.41 3.83 174.02 5.06 171.28 C 8.61 163.38 14.30 154.09 18.24 146.84 C 21.20 141.40 23.93 135.43 26.60 130.12 C 29.58 124.20 33.33 117.87 34.64 113.08 C 36.78 105.28 36.18 94.14 36.25 81.89 C 36.27 77.69 35.86 74.59 39.79 73.53 Z" fill="#1a4e72" fill-rule="evenodd" group-id="2" node-id="256" stroke="none" target-height="115.74528" target-width="87.76887" target-x="3.0958517" target-y="72.99262"></path><path d="M 84.80 179.96 C 81.94 184.12 75.93 182.87 70.98 182.53 C 65.91 182.18 60.43 181.65 55.22 181.57 C 44.21 181.39 32.53 182.27 22.75 181.57 C 18.96 181.29 15.48 180.59 13.42 178.03 C 13.66 169.72 17.37 162.38 20.82 155.52 C 22.07 153.02 23.42 150.62 25.32 150.06 C 31.37 148.26 37.38 156.62 43.65 156.17 C 51.13 155.62 53.01 139.51 61.01 139.12 C 69.56 138.71 71.75 152.71 74.51 158.09 C 76.55 162.06 78.78 164.92 80.62 168.06 C 82.52 171.31 84.89 174.96 84.80 179.96 Z" fill="#e34e6a" fill-rule="evenodd" group-id="2" node-id="258" stroke="none" target-height="43.81601" target-width="71.382" target-x="13.42" target-y="139.124"></path><path d="M 41.10 145.93 C 43.04 144.20 46.47 142.85 48.13 145.32 C 50.73 149.21 42.15 155.18 39.53 152.34 C 37.83 150.51 38.93 147.88 41.10 145.93 Z" fill="#e34e6a" fill-rule="evenodd" group-id="2" node-id="260" stroke="none" target-height="9.082657" target-width="9.9002" target-x="38.690605" target-y="143.99629"></path><path d="M 29.39 107.80 C 23.20 111.63 21.30 117.71 21.80 122.86 C 17.27 126.63 16.01 132.54 17.76 135.76 C 16.90 135.71 16.20 136.94 16.02 137.62 C 14.72 141.90 13.06 145.45 17.45 149.66 C 21.04 153.09 36.51 156.17 37.66 149.61 C 37.94 148.05 37.03 146.52 35.30 145.81 C 39.42 146.43 46.24 141.14 39.75 135.87 C 41.22 136.23 43.50 136.40 45.18 135.44 C 50.26 132.56 48.24 126.39 43.04 122.55 C 43.64 121.77 44.41 120.44 44.79 119.24 C 46.66 113.38 45.63 99.25 39.21 92.93 C 35.54 89.32 28.20 88.22 26.67 95.21 C 25.84 98.95 28.31 104.05 29.39 107.80" fill="#ffcbd5" fill-rule="evenodd" group-id="2" node-id="262" stroke="none" target-height="63.366203" target-width="33.486176" target-x="14.602875" target-y="90.08376"></path><path d="M 29.97 90.62 C 40.60 96.03 45.55 111.38 44.65 119.66 C 47.20 113.80 46.18 101.13 40.30 94.13 C 37.14 90.37 33.63 88.83 29.97 90.62" fill="#ff8d9d" fill-rule="evenodd" group-id="2" node-id="264" stroke="none" target-height="29.768326" target-width="15.969587" target-x="29.974" target-y="89.89268"></path><path d="M 29.39 107.80 C 27.52 110.76 28.70 116.10 33.42 120.95 C 37.35 124.99 44.31 126.74 46.30 130.37 C 47.58 132.73 46.15 134.42 44.80 135.63 C 51.50 132.29 47.80 126.09 43.04 122.55 C 41.75 122.96 41.49 122.78 40.69 122.56 C 35.35 120.22 32.01 112.58 29.39 107.80" fill="#ff8d9d" fill-rule="evenodd" group-id="2" node-id="266" stroke="none" target-height="27.837006" target-width="19.831577" target-x="28.550991" target-y="107.797"></path><path d="M 21.80 122.86 C 19.50 132.78 34.57 134.73 38.03 140.21 C 38.60 141.11 39.21 144.90 35.30 145.81 C 41.75 146.34 44.88 139.97 40.41 136.15 C 38.80 134.77 35.64 134.00 32.85 132.58 C 28.73 130.47 24.88 127.89 21.80 122.86" fill="#ff8d9d" fill-rule="evenodd" group-id="2" node-id="268" stroke="none" target-height="22.953995" target-width="20.932705" target-x="21.569149" target-y="122.86"></path><path d="M 17.76 135.76 C 17.56 143.54 31.45 145.69 33.45 149.02 C 34.09 150.08 34.22 152.24 32.52 153.33 C 36.56 153.47 40.79 148.15 35.30 145.81 C 29.47 143.98 23.16 142.52 17.76 135.76" fill="#ff8d9d" fill-rule="evenodd" group-id="2" node-id="270" stroke="none" target-height="17.570007" target-width="20.140585" target-x="17.759" target-y="135.758"></path><path d="M 295.09 127.15 L 296.87 160.28 C 312.77 197.94 350.32 177.51 356.27 163.14 C 357.60 159.91 347.69 97.67 347.69 97.67 C 350.45 98.19 354.59 97.96 358.70 96.39 C 367.02 93.20 375.12 80.94 367.62 74.88 C 363.81 71.80 360.93 72.65 357.24 72.43 C 357.20 54.55 353.86 35.71 330.06 24.77 C 310.59 15.83 282.94 24.34 271.73 44.71 C 268.92 49.82 266.58 57.78 265.74 63.83 C 264.49 72.82 265.35 85.70 268.07 95.98 C 271.45 108.81 279.02 122.70 295.09 127.15 Z" fill="#ffcbd5" fill-rule="evenodd" group-id="2" node-id="272" stroke="none" target-height="160.46309" target-width="105.378845" target-x="265.18378" target-y="21.250015"></path><path d="M 316.52 71.47 C 313.36 68.27 310.30 66.81 307.57 66.35 C 307.57 66.35 303.01 69.53 302.82 69.52 L 304.08 74.04 C 304.75 74.21 305.49 74.41 306.26 74.52 C 311.41 75.25 316.52 71.47 316.52 71.47" fill="#ffffff" fill-rule="evenodd" group-id="2" node-id="274" stroke="none" target-height="8.193771" target-width="13.694977" target-x="302.821" target-y="66.351"></path><path d="M 296.61 69.56 C 296.61 69.56 301.17 65.27 307.57 66.35 C 307.77 66.85 308.25 67.83 308.29 68.39 C 308.46 70.90 306.72 73.18 304.17 74.09 C 298.76 72.71 296.61 69.56 296.61 69.56" fill="#1a4e72" fill-rule="evenodd" group-id="2" node-id="276" stroke="none" target-height="7.9021225" target-width="11.681" target-x="296.608" target-y="66.186874"></path><path d="M 295.93 62.85 C 299.62 60.83 310.27 58.69 317.89 65.50 L 320.11 63.01 C 311.88 55.66 300.08 56.78 294.33 59.93 L 295.93 62.85 Z" fill="#1a4e72" fill-rule="nonzero" group-id="2" node-id="278" stroke="none" target-height="7.963005" target-width="25.77597" target-x="294.334" target-y="57.533997"></path><path d="M 280.68 70.31 C 277.77 67.35 274.87 66.03 272.34 65.60 L 270.06 68.36 L 269.21 72.76 C 269.82 72.91 270.46 73.04 271.16 73.14 C 275.94 73.83 280.68 70.31 280.68 70.31" fill="#ffffff" fill-rule="evenodd" group-id="2" node-id="280" stroke="none" target-height="7.567093" target-width="11.4670105" target-x="269.215" target-y="65.599"></path><path d="M 262.20 68.55 C 262.20 68.55 266.43 64.57 272.38 65.57 C 272.57 66.03 273.00 66.94 273.04 67.46 C 273.20 69.78 271.59 71.89 269.21 72.76 C 264.20 71.47 262.20 68.55 262.20 68.55" fill="#1a4e72" fill-rule="evenodd" group-id="2" node-id="282" stroke="none" target-height="7.3124847" target-width="10.833984" target-x="262.204" target-y="65.44552"></path><path d="M 261.63 62.43 C 265.02 60.56 274.85 58.58 281.88 64.86 L 284.10 62.38 C 276.40 55.52 265.39 56.57 260.03 59.50 L 261.63 62.43 Z" fill="#1a4e72" fill-rule="nonzero" group-id="2" node-id="284" stroke="none" target-height="7.632637" target-width="24.063995" target-x="260.033" target-y="57.227364"></path><path d="M 327.28 112.94 C 320.16 124.33 308.83 128.61 295.11 127.15 L 296.06 145.19 C 307.75 144.35 326.28 135.60 327.28 112.94" fill="#ff8d9d" fill-rule="evenodd" group-id="2" node-id="286" stroke="none" target-height="32.252" target-width="32.169006" target-x="295.11" target-y="112.937"></path><path d="M 286.11 67.02 C 284.37 66.75 280.52 82.94 281.02 84.58 C 281.65 86.68 289.12 87.41 289.65 86.52 C 291.11 84.01 288.74 67.40 286.11 67.02" fill="#ff8d9d" fill-rule="evenodd" group-id="2" node-id="288" stroke="none" target-height="19.871025" target-width="9.107178" target-x="280.98502" target-y="67.016"></path><path d="M 281.78 105.45 C 290.95 108.05 298.62 101.51 301.87 94.33 L 298.83 92.96 C 296.15 98.88 289.96 104.30 282.67 102.25 L 281.78 105.45 Z" fill="#ff8d9d" fill-rule="nonzero" group-id="2" node-id="290" stroke="none" target-height="13.020226" target-width="20.095001" target-x="281.777" target-y="92.961"></path><path d="M 309.12 81.91 C 306.74 86.00 308.14 91.25 312.22 93.62 C 316.31 96.00 321.55 94.62 323.92 90.53 C 326.31 86.44 324.92 81.20 320.84 78.82 C 316.75 76.45 311.51 77.83 309.12 81.91" fill="#ff8d9d" fill-rule="nonzero" group-id="2" node-id="292" stroke="none" target-height="17.125893" target-width="17.129791" target-x="307.961" target-y="77.65947"></path><path d="M 274.01 91.85 C 272.69 94.13 270.46 95.53 268.06 95.94 C 266.68 90.72 265.78 84.82 265.39 79.10 C 267.26 78.83 269.19 79.13 270.93 80.14 C 275.01 82.52 276.40 87.76 274.01 91.85" fill="#ff8d9d" fill-rule="nonzero" group-id="2" node-id="294" stroke="none" target-height="16.92266" target-width="9.7890625" target-x="265.394" target-y="79.02134"></path><path d="M 359.88 24.69 C 356.84 22.14 350.53 19.17 346.95 18.69 C 341.08 17.90 335.55 21.42 330.44 18.83 C 324.77 15.97 324.29 9.96 320.85 7.09 C 311.52 -0.67 300.32 2.09 293.89 5.76 C 289.52 8.27 287.14 12.87 282.04 13.77 C 274.39 15.11 264.93 7.62 256.18 7.93 C 248.82 8.22 240.69 12.50 236.10 20.38 C 227.07 35.88 242.25 55.42 259.73 52.10 C 263.80 51.33 266.93 48.87 269.39 46.95 C 272.10 44.88 274.26 41.29 278.20 39.77 C 283.77 37.61 291.97 43.20 298.88 43.07 C 302.33 43.01 306.05 41.43 308.80 40.12 C 312.09 38.56 314.01 36.14 318.73 37.18 C 323.16 38.15 326.17 41.15 328.25 43.74 C 335.18 52.36 335.33 65.49 336.68 76.89 C 337.05 80.00 337.62 86.42 340.77 87.49 C 345.53 89.09 347.28 80.75 350.82 76.40 C 353.15 73.54 356.97 72.87 359.57 70.19 C 371.85 57.58 372.33 35.09 359.88 24.69" fill="#1a4e72" fill-rule="evenodd" group-id="2" node-id="296" stroke="none" target-height="85.54296" target-width="135.58928" target-x="233.41173" target-y="2.138"></path><path d="M 357.71 58.16 C 356.56 56.37 356.48 52.78 356.63 49.24 C 356.68 47.73 356.82 45.29 358.17 45.18 C 359.81 45.07 360.10 47.87 360.20 48.87 C 360.51 52.05 360.24 55.95 359.49 57.98 C 359.13 58.34 358.24 58.39 357.71 58.16 Z" fill="#ffffff" fill-rule="evenodd" group-id="2" node-id="298" stroke="none" target-height="13.105629" target-width="3.7502136" target-x="356.5735" target-y="45.184"></path><path d="M 351.37 43.20 C 348.06 44.10 347.34 36.62 350.19 36.66 C 351.43 36.68 353.12 40.18 352.69 41.98 C 352.53 42.62 351.94 43.04 351.37 43.20 Z" fill="#ffffff" fill-rule="evenodd" group-id="2" node-id="300" stroke="none" target-height="6.537998" target-width="4.3036194" target-x="348.44183" target-y="36.664"></path><path d="M 354.02 34.50 C 352.88 34.94 351.66 33.66 350.99 32.03 C 350.44 30.72 350.01 27.95 351.64 27.84 C 352.37 27.78 353.48 28.68 354.07 30.02 C 354.78 31.60 355.49 33.93 354.02 34.50 Z" fill="#ffffff" fill-rule="evenodd" group-id="2" node-id="302" stroke="none" target-height="6.692562" target-width="4.3602295" target-x="350.50092" target-y="27.839"></path><path d="M 260.35 18.01 C 258.13 19.71 253.42 20.21 248.77 20.42 C 246.78 20.51 243.56 20.61 243.28 18.84 C 242.94 16.71 246.59 16.02 247.89 15.78 C 252.02 15.02 257.16 14.93 259.90 15.69 C 260.42 16.12 260.59 17.28 260.35 18.01 Z" fill="#ffffff" fill-rule="evenodd" group-id="2" node-id="304" stroke="none" target-height="5.236889" target-width="17.128983" target-x="243.279" target-y="15.208666"></path><path d="M 249.26 24.91 C 250.80 29.16 241.07 30.93 240.82 27.18 C 240.70 25.57 245.09 22.95 247.50 23.32 C 248.37 23.46 248.98 24.17 249.26 24.91 Z" fill="#ffffff" fill-rule="evenodd" group-id="2" node-id="306" stroke="none" target-height="5.9125137" target-width="8.589905" target-x="240.819" target-y="23.315"></path><path d="M 441.15 422.63 C 436.31 386.19 426.68 351.61 426.68 310.09 C 426.68 276.32 436.06 248.20 439.87 217.16 C 441.14 206.80 443.68 193.15 439.22 184.69 C 436.39 179.31 429.12 175.10 422.50 171.83 C 401.75 161.56 380.27 154.39 355.94 148.35 C 355.67 148.29 355.64 148.48 355.62 148.68 C 353.59 178.09 352.50 207.13 350.15 235.81 C 347.83 264.30 345.08 292.47 342.76 321.02 C 340.47 349.21 337.80 378.80 338.26 409.12 C 338.70 438.30 338.53 480.25 337.51 509.88 L 447.56 509.88 C 446.23 483.93 444.41 447.16 441.15 422.63 Z" fill="#bad6e9" fill-rule="nonzero" group-id="2" node-id="308" stroke="none" target-height="361.52402" target-width="110.050995" target-x="337.51" target-y="148.353"></path><path d="M 355.94 143.85 C 354.41 144.19 354.77 146.41 354.66 147.39 C 353.54 157.17 353.21 167.86 352.41 178.26 C 349.93 210.27 347.47 242.54 344.69 274.40 C 344.49 276.69 343.28 279.81 345.33 281.79 C 348.94 281.77 350.56 277.97 352.08 275.36 C 356.88 267.16 360.56 258.10 364.95 248.67 C 367.52 243.14 370.03 236.98 372.99 230.35 C 375.40 224.91 380.41 216.64 379.74 210.73 C 379.39 207.69 376.87 204.73 375.24 202.05 C 373.54 199.26 371.47 196.85 370.74 193.69 C 374.52 192.13 382.40 195.35 384.88 191.12 C 386.16 188.94 384.21 183.89 383.27 180.51 C 381.36 173.60 379.63 165.94 377.49 159.29 C 376.31 155.64 375.04 150.76 372.34 148.68 C 368.71 145.86 360.72 144.71 355.94 143.85 Z" fill="#bad6e9" fill-rule="evenodd" group-id="2" node-id="310" stroke="none" target-height="137.941" target-width="41.097107" target-x="344.16742" target-y="143.851"></path><path d="M 355.94 143.85 C 354.41 144.19 354.77 146.41 354.66 147.39 C 353.54 157.17 353.21 167.86 352.41 178.26 C 349.93 210.27 347.47 242.54 344.69 274.40 C 344.49 276.69 343.28 279.81 345.33 281.79 C 348.94 281.77 350.56 277.97 352.08 275.36 C 356.88 267.16 360.56 258.10 364.95 248.67 C 367.52 243.14 370.03 236.98 372.99 230.35 C 375.40 224.91 380.41 216.64 379.74 210.73 C 379.39 207.69 376.87 204.73 375.24 202.05 C 373.54 199.26 371.47 196.85 370.74 193.69 C 374.52 192.13 382.40 195.35 384.88 191.12 C 386.16 188.94 384.21 183.89 383.27 180.51 C 381.36 173.60 379.63 165.94 377.49 159.29 C 376.31 155.64 375.04 150.76 372.34 148.68 C 368.71 145.86 360.72 144.71 355.94 143.85 Z" fill="#ffffff" fill-opacity="0.41" fill-rule="evenodd" group-id="2,6" node-id="314" stroke-linecap="butt" stroke-opacity="0.41" stroke-width="1" target-height="137.941" target-width="41.097107" target-x="344.16742" target-y="143.851"></path><path d="M 415.27 412.86 C 396.89 412.96 378.78 413.33 362.98 416.01 C 364.68 429.79 363.25 444.17 368.94 454.97 C 372.64 462.00 381.15 467.76 388.25 472.87 C 390.85 474.75 393.93 476.97 396.67 476.73 C 400.16 476.42 405.26 468.93 407.20 466.20 C 410.59 461.42 412.59 457.31 414.21 452.51 C 418.07 441.13 415.74 426.48 415.62 413.91 C 415.65 413.41 415.68 412.92 415.27 412.86 Z" fill="#1a4e72" fill-opacity="0.25" fill-rule="evenodd" group-id="2,7" node-id="319" stroke-linecap="butt" stroke-opacity="0.25" stroke-width="1" target-height="63.87201" target-width="53.431793" target-x="362.975" target-y="412.856"></path><path d="M 312.13 409.12 C 312.59 378.80 309.92 349.21 307.62 321.02 C 305.30 292.47 302.56 264.30 300.23 235.81 C 297.89 207.13 296.80 178.09 294.76 148.68 C 294.75 148.48 294.72 148.30 294.44 148.35 C 270.12 154.40 248.64 161.56 227.88 171.83 C 221.27 175.10 214.00 179.31 211.16 184.69 C 206.71 193.15 209.25 206.81 210.52 217.17 C 214.33 248.20 223.71 276.32 223.71 310.09 C 223.71 351.61 214.08 386.20 209.23 422.63 C 205.97 447.16 203.79 483.93 202.46 509.88 L 312.51 509.88 C 311.49 480.25 311.68 438.30 312.13 409.12 Z" fill="#bad6e9" fill-rule="nonzero" group-id="2" node-id="322" stroke="none" target-height="361.525" target-width="110.050995" target-x="202.461" target-y="148.354"></path><path d="M 295.03 143.85 C 296.56 144.19 296.20 146.41 296.31 147.39 C 297.43 157.17 297.76 167.86 298.56 178.26 C 301.04 210.27 303.50 242.54 306.28 274.40 C 306.48 276.69 307.69 279.81 305.64 281.79 C 302.03 281.77 300.41 277.97 298.88 275.36 C 294.08 267.16 290.41 258.10 286.02 248.67 C 283.45 243.14 280.94 236.98 277.99 230.35 C 275.57 224.91 270.56 216.64 271.23 210.73 C 271.58 207.69 274.10 204.73 275.73 202.05 C 277.44 199.26 279.50 196.85 280.24 193.69 C 276.45 192.13 268.57 195.35 266.09 191.12 C 264.81 188.94 266.76 183.89 267.70 180.51 C 269.61 173.60 271.34 165.94 273.48 159.29 C 274.66 155.64 275.93 150.76 278.63 148.68 C 282.26 145.86 290.25 144.71 295.03 143.85 Z" fill="#bad6e9" fill-rule="evenodd" group-id="2" node-id="324" stroke="none" target-height="137.941" target-width="41.096252" target-x="265.70642" target-y="143.851"></path><path d="M 295.03 143.85 C 296.56 144.19 296.20 146.41 296.31 147.39 C 297.43 157.17 297.76 167.86 298.56 178.26 C 301.04 210.27 303.50 242.54 306.28 274.40 C 306.48 276.69 307.69 279.81 305.64 281.79 C 302.03 281.77 300.41 277.97 298.88 275.36 C 294.08 267.16 290.41 258.10 286.02 248.67 C 283.45 243.14 280.94 236.98 277.99 230.35 C 275.57 224.91 270.56 216.64 271.23 210.73 C 271.58 207.69 274.10 204.73 275.73 202.05 C 277.44 199.26 279.50 196.85 280.24 193.69 C 276.45 192.13 268.57 195.35 266.09 191.12 C 264.81 188.94 266.76 183.89 267.70 180.51 C 269.61 173.60 271.34 165.94 273.48 159.29 C 274.66 155.64 275.93 150.76 278.63 148.68 C 282.26 145.86 290.25 144.71 295.03 143.85 Z" fill="#ffffff" fill-opacity="0.41" fill-rule="evenodd" group-id="2,8" node-id="328" stroke-linecap="butt" stroke-opacity="0.41" stroke-width="1" target-height="137.941" target-width="41.096252" target-x="265.70642" target-y="143.851"></path><path d="M 234.89 412.86 C 253.26 412.96 271.38 413.33 287.18 416.01 C 285.48 429.79 286.90 444.17 281.21 454.97 C 277.51 462.00 269.00 467.76 261.91 472.87 C 259.30 474.75 256.23 476.97 253.49 476.73 C 249.99 476.42 244.90 468.93 242.96 466.20 C 239.57 461.42 237.56 457.31 235.94 452.51 C 232.09 441.13 234.42 426.48 234.53 413.91 C 234.51 413.41 234.48 412.92 234.89 412.86 Z" fill="#1a4e72" fill-opacity="0.25" fill-rule="evenodd" group-id="2,9" node-id="333" stroke-linecap="butt" stroke-opacity="0.25" stroke-width="1" target-height="63.87201" target-width="53.43228" target-x="233.74771" target-y="412.856"></path><path d="M 214.11 195.91 C 215.58 199.14 214.86 205.09 213.79 210.89 C 213.33 213.37 212.53 217.37 210.26 217.22 C 207.54 217.03 207.74 212.33 207.81 210.66 C 208.05 205.35 209.41 198.97 211.12 195.80 C 211.80 195.30 213.28 195.40 214.11 195.91 Z" fill="#ffffff" fill-rule="evenodd" group-id="2" node-id="336" stroke="none" target-height="21.742004" target-width="7.1138" target-x="207.806" target-y="195.474"></path><path d="M 219.46 211.57 C 225.14 210.88 224.56 223.38 219.86 222.64 C 217.82 222.31 215.85 216.15 216.99 213.28 C 217.41 212.25 218.47 211.70 219.46 211.57 Z" fill="#ffffff" fill-rule="evenodd" group-id="2" node-id="338" stroke="none" target-height="11.064011" target-width="6.879822" target-x="216.67192" target-y="211.575"></path><path d="M 212.08 229.96 C 214.06 229.50 215.78 231.90 216.50 234.75 C 217.08 237.05 217.14 241.71 214.43 241.51 C 213.22 241.42 211.59 239.68 210.93 237.33 C 210.16 234.56 209.53 230.55 212.08 229.96 Z" fill="#ffffff" fill-rule="evenodd" group-id="2" node-id="340" stroke="none" target-height="11.54599" target-width="6.5606384" target-x="210.26218" target-y="229.962"></path><path d="M 367.78 372.67 C 366.37 369.14 365.32 365.81 364.12 362.74 C 361.51 356.05 358.47 349.96 355.65 344.00 C 349.74 331.49 344.12 319.67 339.04 306.14 C 334.00 292.74 328.81 280.56 324.06 266.60 C 321.87 260.15 319.56 253.12 317.06 246.18 C 314.69 239.57 312.94 236.56 309.35 232.10 C 308.72 231.31 308.00 230.56 307.20 229.88 C 298.16 222.72 262.15 242.44 253.25 246.96 C 243.66 251.82 235.68 257.02 226.42 261.11 C 219.39 264.21 212.58 267.50 205.30 270.61 C 204.18 271.09 202.92 271.65 201.71 272.09 C 201.22 272.26 200.68 272.50 200.12 272.64 C 200.23 275.07 202.97 279.56 203.94 281.77 C 211.24 298.24 217.79 314.08 225.10 329.67 C 234.09 348.81 242.01 367.87 250.43 387.30 C 254.41 396.47 258.67 406.97 263.26 415.93 C 265.60 420.49 268.20 424.95 273.03 425.44 C 277.43 425.90 283.67 423.43 287.21 422.20 C 296.40 419.01 304.70 416.11 312.89 412.56 C 325.15 407.25 337.95 402.14 349.55 396.38 C 351.35 395.48 353.24 394.31 355.31 393.36 C 357.31 392.44 359.38 391.65 361.44 390.66 C 365.01 388.94 370.43 386.88 370.92 382.82 C 371.23 380.29 369.06 375.88 367.78 372.67 Z" fill="#f7be4a" fill-rule="nonzero" group-id="2" node-id="342" stroke="none" target-height="197.10464" target-width="170.803" target-x="200.118" target-y="228.34647"></path><path d="M 210.71 283.07 C 209.24 284.93 205.97 277.32 208.54 277.06 C 210.14 276.91 211.83 281.63 210.71 283.07 Z" fill="#ffffff" fill-rule="evenodd" group-id="2" node-id="344" stroke="none" target-height="6.2920227" target-width="3.448639" target-x="207.58972" target-y="277.064"></path><path d="M 215.32 283.81 C 214.30 284.00 213.27 282.04 213.55 280.94 C 214.21 278.34 217.97 283.31 215.32 283.81 Z" fill="#f7be4a" fill-rule="evenodd" group-id="2" node-id="346" stroke="none" target-height="3.584259" target-width="2.7075958" target-x="213.546" target-y="280.22174"></path><path d="M 213.98 289.87 C 213.81 289.99 213.75 289.99 213.64 290.06 C 212.27 291.01 210.62 288.21 211.28 286.36 C 212.15 283.91 215.69 288.67 213.98 289.87 Z" fill="#f7be4a" fill-rule="evenodd" group-id="2" node-id="348" stroke="none" target-height="4.5392456" target-width="3.2684784" target-x="211.13257" target-y="285.70825"></path><path d="M 216.21 294.28 C 216.32 294.25 216.49 294.16 216.56 294.26 C 218.08 296.66 221.69 303.40 223.82 308.16 C 226.01 313.07 228.13 317.99 230.09 323.01 C 237.91 342.99 246.66 362.86 255.87 382.01 C 259.83 390.27 263.73 398.66 267.58 407.20 C 268.48 409.21 269.30 410.38 269.90 413.02 C 270.05 413.65 270.77 414.54 270.04 414.94 C 268.66 415.68 267.91 413.37 267.41 412.49 C 265.47 409.03 263.83 405.29 261.93 401.62 C 249.67 377.85 238.12 352.90 228.19 325.95 C 224.91 317.05 221.14 307.59 217.04 298.79 C 216.34 297.28 215.43 295.66 215.72 294.84 C 215.81 294.59 215.94 294.35 216.21 294.28 Z" fill="#ffffff" fill-rule="evenodd" group-id="2" node-id="350" stroke="none" target-height="120.81775" target-width="54.653564" target-x="215.69287" target-y="294.256"></path><path d="M 221.19 266.73 C 220.09 264.47 222.32 260.20 219.93 258.56 C 218.89 259.47 219.19 261.09 219.14 262.48 C 219.01 266.61 218.81 271.61 219.53 275.97 C 220.09 276.52 220.99 276.68 222.20 276.49 C 223.73 273.10 224.15 266.53 224.33 261.25 C 224.45 257.63 224.76 254.52 221.71 253.70 C 215.53 253.15 216.40 259.57 215.94 264.45 C 215.84 265.57 215.85 267.25 214.56 267.35 C 212.85 266.99 213.39 264.87 213.44 263.74 C 213.60 259.73 214.19 255.06 216.57 253.00 C 219.35 250.57 225.28 251.62 226.23 255.68 C 226.67 257.56 226.34 260.17 226.31 261.99 C 226.24 266.32 226.03 269.94 225.34 273.64 C 225.05 275.26 224.75 277.70 223.55 278.33 C 221.53 279.41 218.23 278.30 217.49 276.99 C 216.78 275.72 216.69 271.96 216.65 269.67 C 216.58 266.21 216.53 259.29 218.28 257.44 C 218.75 256.95 220.10 256.34 220.84 256.39 C 222.77 256.54 223.30 259.21 223.31 261.84 C 223.33 264.17 223.32 266.88 221.19 266.73 Z" fill="#1a4e72" fill-rule="evenodd" group-id="2" node-id="352" stroke="none" target-height="27.043243" target-width="13.119797" target-x="213.32658" target-y="251.71335"></path><path d="M 288.08 266.76 C 288.12 266.75 290.10 266.24 291.05 266.56 C 292.98 267.19 293.93 270.98 294.85 273.32 C 296.77 278.25 298.88 283.39 301.13 288.35 C 302.16 290.60 303.82 294.06 303.08 296.29 C 302.21 298.91 295.28 300.86 292.57 301.92 C 284.31 305.16 277.74 307.82 270.05 311.53 C 268.47 312.28 266.53 313.12 264.43 314.01 C 262.46 314.85 260.11 315.86 258.02 315.32 C 255.82 314.77 254.69 311.82 253.59 309.65 C 252.25 306.99 251.21 304.90 250.32 302.85 C 248.81 299.36 247.42 296.02 245.90 291.92 C 245.39 290.56 244.76 288.91 244.91 287.77 C 245.29 284.88 251.49 282.23 253.93 281.01 C 261.23 277.38 268.71 274.33 276.27 271.25 C 280.04 269.71 283.66 267.66 288.08 266.76 Z" fill="#ffffff" fill-rule="evenodd" group-id="2" node-id="354" stroke="none" target-height="49.007324" target-width="58.350952" target-x="244.913" target-y="266.45508"></path><path d="M 253.38 296.15 C 251.30 293.98 253.69 292.98 256.24 291.74 C 260.84 289.51 264.77 287.69 269.35 285.59 C 276.34 282.36 281.05 280.01 286.88 277.55 C 287.35 277.36 289.77 277.61 289.81 279.28 C 289.85 280.58 287.09 281.42 285.78 282.01 C 276.67 286.14 267.17 290.13 258.19 294.59 C 256.76 295.31 255.26 296.64 253.38 296.15 Z" fill="#1a4e72" fill-opacity="0.25" fill-rule="evenodd" group-id="2,10" node-id="358" stroke-linecap="butt" stroke-opacity="0.25" stroke-width="1" target-height="18.66977" target-width="37.18158" target-x="252.62943" target-y="277.54047"></path><path d="M 290.85 286.76 C 292.04 286.50 293.27 286.90 293.39 287.99 C 293.55 289.51 291.19 289.96 289.53 290.71 C 280.33 294.88 271.73 298.70 262.98 303.05 C 261.57 303.75 259.73 305.19 258.55 305.11 C 257.61 305.04 256.50 303.87 256.65 302.95 C 256.81 301.99 263.77 299.02 264.78 298.54 C 273.33 294.49 282.70 291.05 290.51 286.96 C 290.62 286.90 290.64 286.81 290.85 286.76 Z" fill="#1a4e72" fill-opacity="0.25" fill-rule="evenodd" group-id="2,11" node-id="363" stroke-linecap="butt" stroke-opacity="0.25" stroke-width="1" target-height="18.413788" target-width="36.735992" target-x="256.651" target-y="286.69122"></path><path d="M 285.46 241.00 C 285.95 239.10 292.75 234.90 294.03 237.30 C 295.07 239.26 288.99 242.83 286.72 242.39 C 286.13 242.28 285.80 242.03 285.46 241.00 Z" fill="#ffffff" fill-rule="evenodd" group-id="2" node-id="366" stroke="none" target-height="5.7879944" target-width="8.660248" target-x="285.457" target-y="236.602"></path><path d="M 296.35 242.16 C 294.45 240.32 297.93 238.36 299.05 239.48 C 300.55 240.98 298.03 243.78 296.35 242.16 Z" fill="#ffffff" fill-rule="evenodd" group-id="2" node-id="368" stroke="none" target-height="3.466156" target-width="3.680359" target-x="295.80554" target-y="239.16415"></path><path d="M 296.79 235.18 C 295.37 233.13 300.69 230.18 301.74 232.22 C 302.19 233.08 301.73 233.61 300.82 234.45 C 299.48 235.69 297.79 236.62 296.79 235.18 Z" fill="#ffffff" fill-rule="evenodd" group-id="2" node-id="370" stroke="none" target-height="4.387253" target-width="5.35968" target-x="296.55243" target-y="231.53055"></path><path d="M 286.57 326.01 C 283.35 327.13 271.89 328.86 266.97 331.53 C 265.06 332.56 263.11 334.35 263.63 336.20 C 264.74 340.13 273.66 337.93 276.87 337.61 C 282.43 337.03 286.34 336.98 291.07 336.34 C 287.56 338.13 276.43 339.74 270.22 342.70 C 267.63 343.94 264.88 345.85 265.65 348.21 C 266.64 351.21 274.17 350.25 276.71 350.00 C 288.94 348.84 302.60 347.63 312.48 348.67 C 323.83 349.86 333.50 352.43 343.68 357.09 C 346.15 358.21 350.95 361.66 353.53 360.86 C 354.74 360.49 356.82 357.85 357.44 356.75 C 359.57 352.95 360.69 347.82 362.35 341.47 C 362.98 339.06 363.73 336.67 364.10 333.51 C 364.41 330.95 365.43 326.66 365.05 325.46 C 364.50 323.58 360.59 320.96 358.25 319.43 C 351.44 314.98 341.39 309.50 335.66 305.97 C 330.68 302.93 325.47 299.72 320.73 296.71 C 316.25 293.86 301.59 284.40 297.23 289.72 C 293.65 294.10 308.94 301.55 311.76 304.96 C 304.26 303.54 291.81 303.19 279.31 305.87 C 276.02 306.58 269.06 307.71 269.10 310.71 C 269.14 314.81 274.73 314.11 277.33 314.30 C 280.95 314.55 283.61 315.09 286.75 314.75 C 282.42 316.52 272.07 317.82 267.27 320.62 C 265.71 321.54 264.15 323.24 264.50 324.71 C 265.32 328.09 270.71 326.74 274.41 326.53 C 279.46 326.24 282.75 326.40 286.23 326.13 C 286.33 326.09 286.45 326.05 286.57 326.01 Z" fill="#ffcbd5" fill-rule="evenodd" group-id="2" node-id="372" stroke="none" target-height="72.80908" target-width="101.556305" target-x="263.5765" target-y="288.1333"></path><path d="M 438.61 326.89 C 409.76 319.83 381.93 311.75 354.36 303.42 C 348.16 324.76 341.17 345.32 333.46 365.16 C 366.41 381.91 397.29 399.35 433.78 413.39 C 445.68 417.96 459.04 423.03 473.65 423.03 C 488.26 423.03 498.78 417.27 504.84 408.88 C 511.48 399.71 512.81 386.83 511.60 371.59 C 509.39 343.88 503.36 318.99 496.80 295.70 C 490.33 272.68 480.77 251.51 471.08 230.75 C 464.32 216.25 455.86 200.24 445.04 188.63 C 439.66 182.87 434.01 177.19 425.42 174.81 C 423.64 174.31 419.78 174.41 417.71 175.45 C 408.61 180.01 409.50 200.01 410.63 214.03 C 411.85 229.20 413.68 243.17 416.10 255.51 C 421.51 283.16 430.38 304.48 438.61 326.89 Z" fill="#bad6e9" fill-rule="evenodd" group-id="2" node-id="374" stroke="none" target-height="248.51591" target-width="178.53348" target-x="333.462" target-y="174.51808"></path><path d="M 438.61 326.89 C 409.76 319.83 381.93 311.75 354.36 303.42 C 348.16 324.76 341.17 345.32 333.46 365.16 C 366.41 381.91 397.29 399.35 433.78 413.39 C 445.68 417.96 459.04 423.03 473.65 423.03 C 488.26 423.03 498.78 417.27 504.84 408.88 C 511.48 399.71 512.81 386.83 511.60 371.59 C 509.39 343.88 503.36 318.99 496.80 295.70 C 490.33 272.68 480.77 251.51 471.08 230.75 C 464.32 216.25 455.86 200.24 445.04 188.63 C 439.66 182.87 434.01 177.19 425.42 174.81 C 423.64 174.31 419.78 174.41 417.71 175.45 C 408.61 180.01 409.50 200.01 410.63 214.03 C 411.85 229.20 413.68 243.17 416.10 255.51 C 421.51 283.16 430.38 304.48 438.61 326.89 Z" fill="#ffffff" fill-opacity="0.41" fill-rule="evenodd" group-id="2,12" node-id="378" stroke-linecap="butt" stroke-opacity="0.41" stroke-width="1" target-height="248.51591" target-width="178.53348" target-x="333.462" target-y="174.51808"></path><path d="M 480.34 340.77 C 479.53 342.19 472.63 339.19 469.09 337.87 C 458.88 334.08 449.20 330.03 438.59 326.84 C 436.85 322.10 435.08 317.41 433.32 312.70 C 447.79 319.48 464.01 326.98 476.48 335.62 C 478.10 336.75 481.28 339.12 480.34 340.77 Z" fill="#1a4e72" fill-opacity="0.25" fill-rule="nonzero" group-id="2,13" node-id="383" stroke-linecap="butt" stroke-opacity="0.25" stroke-width="1" target-height="28.401947" target-width="47.17746" target-x="433.321" target-y="312.697"></path><path d="M 359.75 374.50 C 362.30 373.12 362.07 369.79 362.45 367.31 C 365.23 349.27 366.65 327.74 367.43 307.34 C 363.07 306.04 358.71 304.74 354.36 303.42 C 348.16 324.74 341.18 345.28 333.48 365.11 C 333.57 365.18 333.67 365.24 333.76 365.31 C 336.92 366.92 340.06 368.53 343.18 370.14 C 345.83 371.13 348.55 371.98 351.36 373.00 C 353.90 373.93 356.62 375.37 359.75 374.50 Z" fill="#1a4e72" fill-opacity="0.25" fill-rule="nonzero" group-id="2,14" node-id="388" stroke-linecap="butt" stroke-opacity="0.25" stroke-width="1" target-height="71.34366" target-width="33.950012" target-x="333.483" target-y="303.42"></path><path d="M 355.18 358.27 C 355.18 360.88 353.06 362.99 350.46 362.99 C 347.85 362.99 345.74 360.87 345.74 358.27 C 345.74 355.66 347.85 353.55 350.46 353.55 C 353.06 353.55 355.18 355.66 355.18 358.27 Z" fill="#ffffff" fill-rule="nonzero" group-id="2" node-id="391" stroke="none" target-height="9.432983" target-width="9.4339905" target-x="345.741" target-y="353.552"></path><path d="M 414.67 198.03 C 416.20 201.38 415.44 207.53 414.34 213.53 C 413.87 216.09 413.03 220.24 410.69 220.08 C 407.88 219.88 408.07 215.03 408.15 213.29 C 408.40 207.79 409.80 201.20 411.58 197.92 C 412.28 197.40 413.81 197.51 414.67 198.03 Z" fill="#ffffff" fill-rule="evenodd" group-id="2" node-id="393" stroke="none" target-height="22.495392" target-width="7.36261" target-x="408.146" target-y="197.58461"></path><path d="M 420.21 214.24 C 426.09 213.52 425.48 226.46 420.62 225.69 C 418.51 225.35 416.47 218.98 417.66 216.00 C 418.09 214.94 419.18 214.37 420.21 214.24 Z" fill="#ffffff" fill-rule="evenodd" group-id="2" node-id="395" stroke="none" target-height="11.447006" target-width="7.1177673" target-x="417.32263" target-y="214.243"></path><path d="M 413.32 247.13 C 415.37 246.65 417.14 249.13 417.89 252.09 C 418.49 254.47 418.55 259.28 415.74 259.08 C 414.50 258.99 412.81 257.19 412.13 254.75 C 411.33 251.89 410.68 247.74 413.32 247.13 Z" fill="#ffffff" fill-rule="evenodd" group-id="2" node-id="397" stroke="none" target-height="11.942993" target-width="6.787903" target-x="411.43423" target-y="247.134"></path><path d="M 499.93 378.71 C 504.70 381.71 506.23 367.20 501.02 369.11 C 498.30 370.11 498.92 376.17 499.93 378.71 Z" fill="#ffffff" fill-rule="evenodd" group-id="2" node-id="399" stroke="none" target-height="10.133514" target-width="5.179199" target-x="499.07788" target-y="368.95142"></path><path d="M 504.43 387.44 C 504.10 386.30 502.80 384.13 500.55 384.97 C 497.61 386.07 496.53 392.26 495.64 394.64 C 494.55 397.52 491.20 402.48 493.42 405.15 C 496.59 408.97 500.39 400.83 501.57 397.97 C 502.21 396.45 502.68 394.91 503.15 393.60 C 503.95 391.35 505.06 389.64 504.43 387.44 Z" fill="#ffffff" fill-rule="evenodd" group-id="2" node-id="401" stroke="none" target-height="21.373047" target-width="11.936188" target-x="492.6716" target-y="384.78314"></path></g></svg>