<?xml version="1.0" standalone="no"?><!DOCTYPE svg PUBLIC "-//W3C//DTD SVG 1.1//EN" "http://www.w3.org/Graphics/SVG/1.1/DTD/svg11.dtd"><svg height="512" legacy-metrics="false" node-id="1" sillyvg="true" template-height="512" template-width="512" version="1.1" viewBox="0 0 512 512" width="512" xmlns="http://www.w3.org/2000/svg" xmlns:xlink="http://www.w3.org/1999/xlink"><defs node-id="335"></defs><g node-id="606"><path d="M 457.86 301.85 C 451.11 285.99 442.79 272.11 432.96 259.74 C 423.41 247.74 411.87 236.11 397.64 228.09 C 395.80 227.05 393.82 226.06 391.74 225.16 C 390.39 222.46 389.02 219.79 387.67 217.14 C 387.65 217.10 386.91 216.58 387.52 216.45 C 397.18 221.41 407.34 225.99 418.85 228.19 C 430.45 230.40 439.90 229.90 447.64 225.61 C 455.71 221.13 460.68 213.33 463.10 200.47 C 467.37 177.81 462.81 160.49 456.59 143.66 C 453.54 135.41 449.97 127.11 445.75 119.65 C 434.69 100.10 422.41 83.08 406.70 66.71 C 397.36 56.98 386.93 47.80 375.64 39.28 C 360.28 27.68 343.65 17.02 323.42 8.99 C 312.41 4.62 300.70 1.47 289.96 0.42 C 273.84 -1.15 260.34 1.71 249.27 8.62 C 245.66 10.86 241.95 13.46 238.83 16.73 C 232.66 23.20 226.93 32.40 224.41 44.08 C 223.37 48.92 222.64 53.97 222.33 58.64 C 221.46 71.96 222.68 84.19 224.98 95.74 C 225.75 99.62 226.64 103.42 227.63 107.17 C 222.99 104.55 218.24 102.04 213.35 99.66 C 198.69 92.51 182.74 86.57 164.60 83.05 C 158.24 81.81 151.21 81.02 144.37 80.71 C 127.83 79.97 113.50 84.40 102.65 90.39 C 97.18 93.42 92.39 97.48 88.11 101.52 C 74.96 113.92 66.39 130.98 62.82 153.13 C 60.44 167.89 60.53 184.68 62.51 200.97 C 66.14 230.89 74.57 256.91 84.70 281.57 C 92.13 299.68 100.75 316.89 110.50 332.81 C 126.89 359.62 145.36 382.06 167.66 403.75 C 176.16 412.03 186.01 419.74 195.99 426.73 C 216.33 440.98 237.92 453.18 269.77 455.43 C 287.85 456.73 300.04 452.82 308.88 443.59 C 317.36 434.74 321.36 422.26 322.47 405.94 C 323.58 389.75 321.02 374.52 317.78 359.85 C 318.17 359.07 318.60 360.25 318.65 360.29 C 341.35 380.57 365.29 402.21 398.37 412.25 C 407.31 414.96 417.57 417.06 427.73 415.86 C 437.17 414.75 444.99 411.19 450.97 405.58 C 462.26 395.00 468.66 378.49 469.53 357.26 C 470.40 336.04 464.44 317.33 457.86 301.85 Z" fill="#b9d5e8" fill-opacity="0.22" fill-rule="evenodd" group-id="1" node-id="341" stroke-linecap="butt" stroke-opacity="0.22" stroke-width="1" target-height="455.63943" target-width="408.53745" target-x="61.029125" target-y="0.034586005"></path></g><g node-id="607"><path d="M 163.74 174.67 C 163.69 174.69 163.66 174.71 163.62 174.73 C 163.14 174.07 162.64 173.43 162.08 172.91 C 160.09 171.07 157.53 169.72 155.41 168.07 C 153.39 166.50 149.37 164.23 149.58 162.84 C 149.81 161.30 151.73 161.24 152.55 161.28 C 148.88 157.64 158.60 157.54 160.43 157.72 C 164.05 158.09 168.00 160.97 170.81 162.77 C 170.89 162.61 169.82 159.68 166.67 157.56 C 165.22 156.59 161.57 156.20 161.82 154.80 C 162.10 153.24 165.10 153.76 166.97 153.91 C 168.99 154.08 171.21 154.28 173.01 155.25 C 174.82 156.22 176.22 157.99 177.59 159.67 C 179.32 161.81 180.62 163.77 181.88 165.77 C 175.78 168.59 169.84 171.65 163.74 174.67 Z" fill="#ffcad4" fill-rule="evenodd" group-id="2" node-id="346" stroke="none" target-height="21.020737" target-width="32.306" target-x="149.579" target-y="153.71227"></path><path d="M 162.51 155.85 C 164.36 157.34 166.98 157.74 168.77 159.36 C 170.43 160.88 170.50 162.46 170.81 162.77 C 171.63 161.06 171.33 159.90 170.01 158.20 C 168.34 156.04 165.19 157.85 162.51 155.85" fill="#ff8c9c" fill-rule="evenodd" group-id="2" node-id="348" stroke="none" target-height="6.923004" target-width="8.716431" target-x="162.509" target-y="155.851"></path><path d="M 152.55 161.28 C 156.61 162.63 161.84 165.52 165.18 168.03 C 162.03 164.32 156.70 162.10 152.55 161.28" fill="#ff8c9c" fill-rule="evenodd" group-id="2" node-id="350" stroke="none" target-height="6.742996" target-width="12.628998" target-x="152.549" target-y="161.283"></path><path d="M 167.92 165.40 C 165.82 161.62 157.91 157.17 153.70 158.25 C 157.16 158.55 164.11 161.62 167.92 165.40" fill="#ff8c9c" fill-rule="evenodd" group-id="2" node-id="352" stroke="none" target-height="7.3109283" target-width="14.222" target-x="153.702" target-y="158.09007"></path></g><g node-id="608"><path d="M 343.55 494.89 C 343.87 486.86 344.25 478.77 344.49 470.55 C 335.69 470.29 326.92 470.39 318.16 469.71 C 318.99 480.63 318.74 485.92 318.82 490.59 C 318.73 490.95 318.62 491.31 318.51 491.67 C 317.26 492.14 316.00 492.63 314.73 493.12 L 307.93 495.72 L 304.49 501.55 L 316.36 506.40 L 334.36 501.71 L 343.55 494.89 Z" fill="#ffcad4" fill-rule="nonzero" group-id="3" node-id="357" stroke="none" target-height="36.68802" target-width="39.99698" target-x="304.489" target-y="469.715"></path><path d="M 294.98 500.92 C 299.29 499.11 303.63 497.39 307.93 495.72 C 307.73 496.41 307.67 497.13 308.02 497.78 C 308.33 498.36 308.89 498.77 309.49 499.04 C 310.86 499.64 312.49 499.75 313.97 499.79 C 319.22 499.94 328.39 498.64 343.55 494.89 C 343.55 494.89 344.95 504.47 343.95 507.42 C 334.88 510.24 324.64 510.44 315.30 510.24 C 308.70 510.10 301.63 509.98 294.60 508.69 C 292.67 508.34 289.01 508.06 288.47 506.11 C 287.87 503.93 292.75 501.86 294.98 500.92 Z" fill="#14334f" fill-rule="nonzero" group-id="3" node-id="359" stroke="none" target-height="15.387268" target-width="55.840942" target-x="288.4663" target-y="494.893"></path><path d="M 438.32 490.88 C 437.60 483.99 436.92 477.04 436.14 470.02 C 428.64 472.63 420.83 474.54 413.14 476.32 C 412.45 476.48 411.76 476.62 411.07 476.78 C 412.24 482.93 412.67 486.74 413.23 490.18 C 413.19 490.55 413.14 490.92 413.07 491.29 C 411.91 491.94 410.73 492.60 409.55 493.26 L 403.19 496.82 L 399.29 502.16 L 408.42 506.39 L 423.39 501.89 L 438.32 490.88 Z" fill="#ffcad4" fill-rule="nonzero" group-id="3" node-id="361" stroke="none" target-height="36.36801" target-width="39.03601" target-x="399.285" target-y="470.025"></path><path d="M 391.12 503.83 C 395.12 501.41 399.18 499.09 403.19 496.82 C 403.04 497.85 403.30 498.79 404.19 499.41 C 404.88 499.89 405.75 500.06 406.60 500.09 C 410.35 500.25 414.08 499.29 417.67 498.27 C 421.17 497.28 424.62 496.11 428.03 494.87 C 428.98 494.52 438.39 491.11 438.32 490.88 C 438.32 490.88 441.08 500.17 440.52 503.22 C 431.94 507.32 421.84 508.98 412.57 510.13 C 406.01 510.94 399.01 511.84 391.86 511.57 C 389.89 511.49 386.24 511.75 385.42 509.90 C 384.51 507.82 389.05 505.07 391.12 503.83 Z" fill="#14334f" fill-rule="nonzero" group-id="3" node-id="363" stroke="none" target-height="20.688416" target-width="55.26544" target-x="385.3206" target-y="490.883"></path><path d="M 316.39 477.44 C 327.83 478.34 338.93 478.30 350.70 478.91 C 353.63 446.50 350.83 414.97 347.38 384.37 C 346.50 376.56 345.78 368.00 345.38 360.36 C 344.97 352.56 345.09 344.57 345.68 336.46 C 346.81 320.80 347.92 305.62 345.94 289.55 C 333.12 289.86 321.36 288.67 309.20 287.36 C 307.32 287.16 304.71 286.71 303.72 286.74 C 301.91 286.80 302.36 286.51 302.01 288.59 C 301.62 290.91 302.01 296.62 302.01 298.14 C 302.01 327.42 300.84 359.75 303.72 385.95 C 305.45 401.72 308.30 416.86 310.23 431.54 C 312.25 446.99 314.33 463.10 316.39 477.44 Z" fill="#1a4e72" fill-rule="evenodd" group-id="3" node-id="365" stroke="none" target-height="192.16602" target-width="50.12088" target-x="301.786" target-y="286.741"></path><path d="M 341.30 383.25 C 340.11 375.48 338.70 367.87 337.99 360.25 C 337.28 352.48 338.16 344.62 338.43 336.50 C 338.94 321.01 338.81 305.20 336.30 289.43 C 340.07 289.56 343.83 289.60 347.55 289.51 C 349.52 305.58 349.02 321.61 347.89 337.26 C 347.30 345.37 346.11 353.19 346.52 360.99 C 346.92 368.63 348.03 376.29 348.91 384.10 C 352.37 414.70 354.58 446.89 351.65 479.29 C 343.36 478.87 334.94 478.56 326.69 478.11 C 333.70 478.18 340.78 478.18 347.78 478.26 C 349.43 445.78 345.96 413.70 341.30 383.25 Z" fill="#14334f" fill-rule="nonzero" group-id="3" node-id="367" stroke="none" target-height="189.861" target-width="26.320587" target-x="326.69" target-y="289.433"></path><path d="M 310.04 354.22 C 306.43 351.02 303.54 363.64 307.00 364.64 C 311.05 365.81 311.50 356.94 310.36 354.55 C 310.28 354.40 310.16 354.33 310.04 354.22 Z" fill="#ffffff" fill-rule="evenodd" group-id="3" node-id="369" stroke="none" target-height="11.010773" target-width="5.4362793" target-x="305.447" target-y="353.71057"></path><path d="M 315.56 363.33 C 312.30 361.16 309.53 370.77 313.56 371.13 C 316.62 371.40 317.81 364.83 315.56 363.33 Z" fill="#ffffff" fill-rule="evenodd" group-id="3" node-id="371" stroke="none" target-height="8.092957" target-width="5.1578064" target-x="311.562" target-y="363.03406"></path><path d="M 395.52 285.81 C 380.02 288.16 363.91 289.90 345.94 289.82 C 369.36 349.86 386.56 415.94 408.78 477.13 C 418.82 476.05 428.17 475.33 437.85 473.89 C 435.36 437.19 428.38 406.10 418.74 376.83 C 414.06 362.64 406.19 348.20 402.59 333.32 C 398.88 318.02 399.16 303.06 393.99 287.34 C 394.02 286.91 395.88 285.87 395.52 285.81 Z" fill="#1a4e72" fill-rule="evenodd" group-id="3" node-id="373" stroke="none" target-height="191.319" target-width="91.90201" target-x="345.944" target-y="285.815"></path><path d="M 396.68 336.16 C 392.21 320.81 389.88 304.83 383.93 289.14 C 383.93 288.69 383.93 288.25 383.56 288.21 C 372.07 290.56 360.22 292.59 347.46 293.80 C 346.95 292.48 346.46 291.14 345.94 289.82 C 363.91 289.90 380.02 288.16 395.52 285.81 C 395.88 285.87 395.86 286.30 395.83 286.74 C 401.00 302.45 402.55 318.27 406.25 333.57 C 409.86 348.45 416.10 362.51 420.78 376.70 C 430.42 405.97 436.28 437.05 438.77 473.75 C 437.82 473.89 436.83 474.01 435.87 474.14 C 431.50 438.20 424.19 407.74 413.36 379.23 C 407.97 365.05 401.03 351.09 396.68 336.16 Z" fill="#14334f" fill-rule="nonzero" group-id="3" node-id="375" stroke="none" target-height="188.324" target-width="92.826996" target-x="345.945" target-y="285.815"></path><path d="M 374.52 350.02 C 373.05 352.78 376.48 365.03 380.57 363.60 C 383.90 362.44 380.63 351.69 377.49 349.75 C 376.68 349.25 376.02 349.19 374.52 350.02 Z" fill="#ffffff" fill-rule="evenodd" group-id="3" node-id="377" stroke="none" target-height="14.292023" target-width="7.7358093" target-x="374.20032" target-y="349.38837"></path><path d="M 388.53 360.42 C 384.32 360.51 386.28 366.57 388.79 366.46 C 392.17 366.33 392.23 360.33 388.53 360.42 Z" fill="#ffffff" fill-rule="evenodd" group-id="3" node-id="379" stroke="none" target-height="6.04599" target-width="5.2122803" target-x="386.10455" target-y="360.418"></path><path d="M 242.25 156.19 C 251.52 166.25 260.32 177.39 267.80 187.83 C 271.39 183.12 284.99 165.77 288.91 161.38 C 295.15 167.18 301.89 172.46 307.95 178.44 C 301.24 187.50 284.86 210.48 276.69 218.02 C 274.39 220.14 271.38 223.16 267.12 221.87 C 264.38 221.03 261.52 218.23 259.30 215.69 C 252.41 207.79 248.24 198.93 243.64 189.20 C 240.58 182.75 234.37 170.77 231.34 164.18 C 230.06 161.40 241.79 155.70 242.25 156.19 Z" fill="#ffcad4" fill-rule="evenodd" group-id="3" node-id="381" stroke="none" target-height="65.98627" target-width="76.66893" target-x="231.27708" target-y="156.194"></path><path d="M 274.23 196.94 C 272.75 197.10 272.30 195.50 271.72 194.59 C 270.33 192.41 268.97 190.15 267.78 187.81 C 267.79 187.81 267.79 187.82 267.80 187.83 C 268.92 186.35 270.09 184.92 271.28 183.51 C 272.55 186.36 273.44 189.65 274.07 192.97 C 274.32 194.26 274.78 195.71 274.23 196.94 Z" fill="#ff8c9c" fill-rule="nonzero" group-id="3" node-id="383" stroke="none" target-height="13.435989" target-width="6.691437" target-x="267.781" target-y="183.507"></path><path d="M 281.07 160.93 C 290.45 172.00 301.03 179.14 312.03 184.92 C 316.41 179.45 320.13 172.37 323.08 165.05 C 325.87 158.12 328.47 150.24 328.29 143.41 C 328.16 138.05 325.32 130.83 319.79 129.44 C 316.44 128.59 312.63 130.05 308.30 132.77 C 296.71 140.07 288.29 152.60 281.07 160.93 Z" fill="#b9d5e8" fill-rule="evenodd" group-id="3" node-id="385" stroke="none" target-height="55.713806" target-width="47.224" target-x="281.069" target-y="129.2052"></path><g node-id="609"><path d="M 281.07 160.93 C 290.45 172.00 301.03 179.14 312.03 184.92 C 316.41 179.45 320.13 172.37 323.08 165.05 C 325.87 158.12 328.47 150.24 328.29 143.41 C 328.16 138.05 325.32 130.83 319.79 129.44 C 316.44 128.59 312.63 130.05 308.30 132.77 C 296.71 140.07 288.29 152.60 281.07 160.93 Z" fill="#1a4e72" fill-opacity="0.16" fill-rule="evenodd" group-id="3,4" node-id="389" stroke-linecap="butt" stroke-opacity="0.16" stroke-width="1" target-height="55.713806" target-width="47.224" target-x="281.069" target-y="129.2052"></path></g><path d="M 311.43 53.97 C 314.09 51.52 318.28 50.23 322.30 51.45 C 321.70 49.98 320.22 49.43 320.20 47.35 C 323.19 46.66 323.95 50.26 325.80 51.55 C 325.83 52.33 325.88 53.10 325.99 53.88 C 326.08 54.52 326.14 54.95 326.19 55.25 C 326.20 55.35 326.20 55.45 326.20 55.56 C 326.26 57.27 326.29 58.99 326.36 60.70 C 326.37 61.06 326.39 61.42 326.40 61.78 C 326.23 61.51 326.05 61.24 325.88 60.97 C 322.63 67.77 317.55 72.83 311.48 76.97 C 311.27 83.15 311.01 92.35 310.87 99.76 C 310.82 102.26 311.06 110.39 308.57 110.12 C 307.23 109.98 307.35 107.73 306.72 107.11 C 306.09 108.50 305.86 114.48 303.00 114.24 C 300.00 113.98 300.08 103.58 300.14 99.65 C 300.37 83.67 302.72 61.98 311.43 53.97 Z" fill="#1a4e72" fill-rule="evenodd" group-id="3" node-id="392" stroke="none" target-height="66.89606" target-width="26.268005" target-x="300.136" target-y="47.341946"></path><path d="M 327.92 115.33 C 327.14 112.14 327.02 108.38 325.93 105.47 C 312.53 108.99 308.53 99.57 309.31 88.46 C 310.09 77.48 315.00 66.62 320.11 61.85 C 326.07 56.30 338.89 54.21 347.10 59.45 C 352.68 63.02 355.07 75.67 356.02 83.20 C 351.15 86.08 348.66 94.08 348.66 94.13 C 348.63 96.94 353.49 120.72 353.49 120.72 C 348.89 133.68 340.00 141.16 335.63 140.73 C 332.38 140.40 329.87 125.10 328.57 118.39 L 327.23 117.39 L 327.92 115.33 Z" fill="#ffcad4" fill-rule="nonzero" group-id="3" node-id="394" stroke="none" target-height="84.281784" target-width="46.764557" target-x="309.25345" target-y="56.444214"></path><path d="M 332.71 83.31 C 331.09 84.30 329.65 84.55 328.49 84.46 L 327.31 82.57 L 327.90 80.97 C 328.17 80.97 328.51 80.98 328.81 81.01 C 331.00 81.23 332.71 83.31 332.71 83.31" fill="#ffffff" fill-rule="evenodd" group-id="3" node-id="396" stroke="none" target-height="3.4869995" target-width="5.3940125" target-x="327.315" target-y="80.975"></path><path d="M 324.34 82.06 C 324.34 82.06 325.77 84.28 328.51 84.49 C 328.64 84.31 328.94 83.95 329.01 83.73 C 329.34 82.72 328.86 81.61 327.91 80.97 C 325.55 80.98 324.34 82.06 324.34 82.06" fill="#1a4e72" fill-rule="evenodd" group-id="3" node-id="398" stroke="none" target-height="3.5250015" target-width="4.768158" target-x="324.343" target-y="80.965"></path><path d="M 324.56 78.92 C 326.23 78.31 330.82 78.07 333.58 81.40 L 334.66 80.50 C 331.68 76.91 326.68 76.64 324.07 77.60 L 324.56 78.92 Z" fill="#1a4e72" fill-rule="nonzero" group-id="3" node-id="400" stroke="none" target-height="4.2700424" target-width="10.587982" target-x="324.074" target-y="77.12696"></path><path d="M 317.75 80.84 C 316.19 81.68 314.87 81.86 313.79 81.72 L 312.25 79.69 L 313.42 78.45 C 313.68 78.46 313.97 78.47 314.25 78.51 C 316.27 78.83 317.75 80.84 317.75 80.84" fill="#ffffff" fill-rule="evenodd" group-id="3" node-id="402" stroke="none" target-height="3.3112106" target-width="5.501007" target-x="312.249" target-y="78.449"></path><path d="M 310.06 79.27 C 310.06 79.27 311.27 81.40 313.81 81.73 C 313.94 81.57 314.23 81.25 314.31 81.05 C 314.66 80.12 314.27 79.08 313.42 78.43 C 311.24 78.33 310.06 79.27 310.06 79.27" fill="#1a4e72" fill-rule="evenodd" group-id="3" node-id="404" stroke="none" target-height="3.300003" target-width="4.375519" target-x="310.061" target-y="78.432"></path><path d="M 310.25 76.61 C 311.78 76.03 316.02 75.82 318.56 78.89 L 319.64 77.98 C 316.85 74.64 312.19 74.39 309.76 75.28 L 310.25 76.61 Z" fill="#1a4e72" fill-rule="nonzero" group-id="3" node-id="406" stroke="none" target-height="4.0472946" target-width="9.881989" target-x="309.76" target-y="74.843704"></path><path d="M 325.92 105.47 C 330.05 104.63 335.05 99.83 335.05 99.83 C 335.05 99.83 335.03 108.01 327.38 112.61 L 325.92 105.47 Z" fill="#ff8c9c" fill-rule="evenodd" group-id="3" node-id="408" stroke="none" target-height="12.777" target-width="9.127991" target-x="325.918" target-y="99.828"></path><path d="M 320.32 81.13 C 319.52 80.81 315.89 88.03 315.94 88.88 C 316.01 89.94 319.46 91.12 319.80 90.76 C 320.77 89.73 321.51 81.60 320.32 81.13" fill="#ff8c9c" fill-rule="evenodd" group-id="3" node-id="410" stroke="none" target-height="9.695206" target-width="4.939209" target-x="315.938" target-y="81.129"></path><path d="M 313.10 95.32 C 316.79 98.13 321.43 96.53 324.18 93.86 L 323.05 92.70 C 320.78 94.91 317.01 96.25 314.08 94.03 L 313.10 95.32 Z" fill="#ff8c9c" fill-rule="nonzero" group-id="3" node-id="412" stroke="none" target-height="4.076622" target-width="11.075989" target-x="313.103" target-y="92.704"></path><path d="M 326.44 88.48 C 325.18 90.04 325.44 92.32 327.00 93.58 C 328.56 94.82 330.83 94.57 332.08 93.01 C 333.33 91.45 333.08 89.17 331.52 87.92 C 329.96 86.67 327.69 86.92 326.44 88.48" fill="#ff8c9c" fill-rule="nonzero" group-id="3" node-id="414" stroke="none" target-height="7.195999" target-width="7.19458" target-x="325.6629" target-y="87.14975"></path><path d="M 312.47 88.97 C 311.66 89.98 310.42 90.43 309.22 90.30 C 309.23 90.14 309.25 90.00 309.25 89.84 C 309.22 87.80 309.54 85.43 309.98 83.24 C 310.60 83.33 311.39 83.47 311.91 83.88 C 313.47 85.14 313.72 87.41 312.47 88.97 Z" fill="#ff8c9c" fill-rule="nonzero" group-id="3" node-id="416" stroke="none" target-height="7.054001" target-width="4.0183716" target-x="309.224" target-y="83.242"></path><path d="M 323.68 51.06 C 323.92 51.34 326.25 51.36 326.53 51.56 C 327.06 50.29 326.65 48.13 328.17 47.78 C 329.38 48.34 328.09 50.82 328.50 51.28 C 352.77 48.85 366.79 60.38 364.73 90.01 C 364.36 95.39 364.64 99.40 363.92 106.24 C 363.61 109.26 362.71 115.86 360.27 115.55 C 358.79 115.36 359.00 113.41 358.40 111.89 C 357.91 113.60 357.64 116.07 355.90 115.91 C 353.56 115.68 354.47 110.72 353.47 108.31 C 353.06 111.05 352.94 116.25 350.43 116.07 C 347.90 115.89 348.68 110.17 347.75 107.40 C 346.87 110.14 346.92 114.22 343.82 114.75 C 341.50 111.72 342.06 106.45 342.12 102.10 C 342.15 99.64 341.85 97.17 341.88 94.66 C 341.96 89.20 342.53 83.76 342.49 78.87 C 335.23 75.00 331.09 67.80 326.61 60.97 C 326.45 61.30 323.96 52.34 323.68 51.06 Z" fill="#1a4e72" fill-rule="evenodd" group-id="3" node-id="418" stroke="none" target-height="68.289" target-width="41.24283" target-x="323.676" target-y="47.784"></path><path d="M 306.65 73.77 C 311.63 74.48 314.76 73.34 317.81 70.74 C 320.76 68.23 323.15 65.38 325.68 62.39 C 327.70 68.22 331.10 73.85 335.52 78.61 C 337.77 81.03 347.13 88.85 350.98 84.31 C 352.58 82.42 352.71 77.78 352.86 75.74 C 353.23 70.87 351.94 66.88 350.30 64.31 C 346.40 58.25 338.82 55.09 330.48 52.86 C 318.60 49.68 314.19 53.95 309.81 61.41 C 307.93 64.60 305.64 68.41 305.78 72.55 C 306.38 73.13 306.02 73.21 306.65 73.77 Z" fill="#1a4e72" fill-rule="evenodd" group-id="3" node-id="420" stroke="none" target-height="33.883347" target-width="47.080017" target-x="305.784" target-y="51.792564"></path><path d="M 354.18 62.27 C 355.52 61.11 351.90 56.19 350.69 58.37 C 351.05 59.77 352.65 62.45 354.18 62.27 Z" fill="#ffffff" fill-rule="evenodd" group-id="3" node-id="422" stroke="none" target-height="4.407276" target-width="3.7737122" target-x="350.688" target-y="57.858723"></path><path d="M 351.28 64.76 C 351.49 65.58 352.37 66.52 353.08 66.22 C 354.67 65.17 352.04 62.73 351.28 64.76 Z" fill="#ffffff" fill-rule="evenodd" group-id="3" node-id="424" stroke="none" target-height="2.233406" target-width="2.2816162" target-x="351.276" target-y="64.00545"></path><path d="M 357.90 68.42 C 358.45 68.24 358.22 68.19 358.72 67.78 C 358.65 66.21 355.65 63.37 355.45 66.14 C 356.25 67.07 356.98 68.49 357.90 68.42 Z" fill="#ffffff" fill-rule="evenodd" group-id="3" node-id="426" stroke="none" target-height="3.437561" target-width="3.2729797" target-x="355.45" target-y="64.98644"></path><path d="M 319.47 53.38 C 318.82 52.48 317.38 53.84 316.37 54.83 C 315.36 55.83 314.40 56.99 314.84 57.53 C 315.52 58.40 316.86 56.96 317.69 56.20 C 318.37 55.57 320.14 54.33 319.47 53.38 Z" fill="#ffffff" fill-rule="evenodd" group-id="3" node-id="428" stroke="none" target-height="4.7106247" target-width="4.870819" target-x="314.74475" target-y="53.08676"></path><path d="M 312.37 56.28 C 311.57 55.19 309.15 58.09 309.93 58.83 C 310.72 59.60 312.99 57.12 312.37 56.28 Z" fill="#ffffff" fill-rule="evenodd" group-id="3" node-id="430" stroke="none" target-height="2.930622" target-width="2.6804504" target-x="309.7816" target-y="56.040924"></path><path d="M 312.71 59.82 C 311.76 59.66 310.29 61.01 309.61 62.24 C 309.38 62.68 309.22 63.23 309.66 63.54 C 310.35 64.04 311.19 62.84 311.92 62.09 C 312.68 61.31 313.72 60.63 312.71 59.82 Z" fill="#ffffff" fill-rule="evenodd" group-id="3" node-id="432" stroke="none" target-height="3.8182907" target-width="3.7440796" target-x="309.38113" target-y="59.817"></path><path d="M 331.56 121.91 C 321.58 125.91 314.74 132.77 309.38 141.93 C 306.87 146.22 304.75 150.96 302.29 156.11 C 298.69 163.63 292.80 169.23 295.51 179.53 C 296.61 183.70 298.98 186.99 300.13 190.62 C 304.06 203.02 301.79 217.56 299.52 231.90 C 296.57 250.47 294.67 269.51 294.90 289.21 C 311.07 292.02 330.81 292.36 350.04 291.98 C 368.94 291.60 387.92 291.34 402.11 286.43 C 396.73 264.04 387.16 244.26 386.71 214.34 C 386.48 199.72 386.57 184.97 385.47 171.82 C 384.31 157.80 383.61 144.96 378.08 135.77 C 373.58 128.30 365.08 122.91 356.21 120.67 C 355.84 120.58 355.36 120.24 354.98 120.37 C 352.87 121.04 351.37 124.25 349.74 126.53 C 346.28 131.36 344.32 134.36 340.19 139.47 C 338.32 141.77 336.11 144.43 333.72 144.09 C 327.48 143.21 332.07 126.88 331.56 121.91 Z" fill="#b9d5e8" fill-rule="evenodd" group-id="3" node-id="434" stroke="none" target-height="171.73189" target-width="107.29758" target-x="294.81342" target-y="120.368"></path><path d="M 317.27 133.98 C 316.92 135.91 314.72 138.37 312.40 140.66 C 311.42 141.64 309.79 143.19 308.81 142.41 C 307.64 141.47 309.20 139.40 309.77 138.67 C 311.55 136.34 314.18 133.88 315.96 132.98 C 316.42 132.97 317.06 133.49 317.27 133.98 Z" fill="#ffffff" fill-rule="evenodd" group-id="3" node-id="436" stroke="none" target-height="9.626205" target-width="8.861298" target-x="308.4107" target-y="132.982"></path><path d="M 314.75 142.76 C 317.55 144.23 313.33 149.71 311.44 147.90 C 310.62 147.10 311.68 143.69 313.10 142.75 C 313.61 142.42 314.27 142.50 314.75 142.76 Z" fill="#ffffff" fill-rule="evenodd" group-id="3" node-id="438" stroke="none" target-height="5.7216187" target-width="4.486969" target-x="311.19296" target-y="142.535"></path><path d="M 301.71 155.06 C 302.75 155.48 302.77 157.10 302.20 158.62 C 301.74 159.85 300.30 161.97 299.13 161.03 C 298.61 160.61 298.42 159.31 298.87 158.03 C 299.38 156.53 300.37 154.52 301.71 155.06 Z" fill="#ffffff" fill-rule="evenodd" group-id="3" node-id="440" stroke="none" target-height="6.262909" target-width="3.9207458" target-x="298.63788" target-y="155.00032"></path><path d="M 387.92 281.41 C 386.48 279.21 386.35 274.78 386.48 270.41 C 386.54 268.55 386.68 265.53 388.35 265.39 C 390.36 265.22 390.75 268.68 390.88 269.91 C 391.30 273.83 391.02 278.64 390.12 281.16 C 389.68 281.60 388.58 281.69 387.92 281.41 Z" fill="#ffffff" fill-rule="evenodd" group-id="3" node-id="442" stroke="none" target-height="16.164856" target-width="4.6183167" target-x="386.44882" target-y="265.388"></path><path d="M 382.25 270.55 C 378.17 271.69 377.20 262.47 380.72 262.49 C 382.25 262.51 384.38 266.79 383.87 269.02 C 383.68 269.82 382.96 270.34 382.25 270.55 Z" fill="#ffffff" fill-rule="evenodd" group-id="3" node-id="444" stroke="none" target-height="8.121429" target-width="5.3365173" target-x="378.58682" target-y="262.493"></path><path d="M 383.57 246.54 C 382.17 247.10 380.65 245.54 379.80 243.53 C 379.12 241.91 378.55 238.51 380.56 238.35 C 381.45 238.28 382.84 239.37 383.58 241.02 C 384.46 242.96 385.37 245.82 383.57 246.54 Z" fill="#ffffff" fill-rule="evenodd" group-id="3" node-id="446" stroke="none" target-height="8.2397" target-width="5.4123535" target-x="379.17102" target-y="238.354"></path><path d="M 334.33 139.00 C 333.44 135.31 333.43 132.79 332.64 128.60 C 332.20 126.24 331.40 120.36 327.21 121.82 C 324.53 122.77 325.35 130.67 325.85 135.18 C 326.44 140.60 327.40 147.29 331.60 147.49 C 334.89 147.65 338.48 143.66 340.58 141.41 C 345.81 135.81 348.77 132.10 353.69 126.13 C 354.66 124.95 362.32 116.52 357.01 115.44 C 352.30 114.49 346.77 123.41 344.37 126.37 C 340.71 130.89 337.32 134.73 334.33 139.00 Z" fill="#b9d5e8" fill-rule="evenodd" group-id="3" node-id="448" stroke="none" target-height="32.08544" target-width="33.532043" target-x="325.33972" target-y="115.405556"></path><path d="M 334.33 139.00 C 333.44 135.31 333.43 132.79 332.64 128.60 C 332.20 126.24 331.40 120.36 327.21 121.82 C 324.53 122.77 325.35 130.67 325.85 135.18 C 326.44 140.60 327.40 147.29 331.60 147.49 C 334.89 147.65 338.48 143.66 340.58 141.41 C 345.81 135.81 348.77 132.10 353.69 126.13 C 354.66 124.95 362.32 116.52 357.01 115.44 C 352.30 114.49 346.77 123.41 344.37 126.37 C 340.71 130.89 337.32 134.73 334.33 139.00 Z" fill="#1a4e72" fill-opacity="0.16" fill-rule="evenodd" group-id="3,5" node-id="452" stroke-linecap="butt" stroke-opacity="0.16" stroke-width="1" target-height="32.08544" target-width="33.532043" target-x="325.33972" target-y="115.405556"></path><path d="M 354.98 117.22 C 354.47 116.27 353.48 115.26 352.30 114.62 C 352.30 114.62 352.64 113.67 352.72 113.34 C 352.82 112.93 353.05 111.65 353.05 111.65 C 353.10 111.67 353.15 111.69 353.21 111.71 C 357.85 113.42 358.89 117.05 359.38 120.43 C 359.83 123.52 359.67 126.64 359.54 129.66 C 359.30 135.50 358.32 141.31 357.29 147.07 C 356.24 146.97 355.17 146.90 354.18 146.58 C 354.70 142.13 355.56 137.16 356.10 132.25 C 356.71 126.73 357.27 121.43 354.98 117.22 Z" fill="#e24e6a" fill-rule="evenodd" group-id="3" node-id="455" stroke="none" target-height="35.418007" target-width="7.377136" target-x="352.3" target-y="111.652"></path><path d="M 356.94 149.66 C 357.12 148.69 357.40 147.67 357.57 146.70 C 353.65 145.49 350.30 146.95 347.49 149.01 C 344.70 151.06 342.26 154.22 339.78 157.90 C 337.46 161.33 335.01 165.22 333.04 169.67 C 331.19 173.83 329.51 178.23 330.42 181.44 C 330.91 183.20 332.16 184.87 333.80 186.14 C 334.38 186.58 335.11 186.91 335.83 187.37 C 336.52 187.80 337.47 188.12 337.89 187.44 C 338.48 186.50 337.37 185.69 336.77 185.13 C 334.74 183.23 333.61 180.86 333.80 178.21 C 333.90 176.76 334.45 175.31 335.04 173.57 C 335.53 172.10 336.17 170.31 336.82 168.72 C 339.60 162.04 343.64 156.49 347.69 152.44 C 348.67 151.46 349.78 150.59 351.02 149.98 C 352.16 149.42 353.64 148.90 354.83 148.99 C 355.48 149.04 356.07 149.28 356.94 149.66 Z" fill="#e24e6a" fill-rule="evenodd" group-id="3" node-id="457" stroke="none" target-height="41.525192" target-width="27.38507" target-x="330.18494" target-y="146.29718"></path><path d="M 336.78 188.67 C 337.35 189.25 338.40 188.88 339.24 188.74 C 340.04 188.60 340.75 188.49 341.02 187.89 C 341.29 187.28 340.86 186.80 340.46 186.31 C 340.03 185.79 339.72 185.31 339.25 185.01 C 338.08 184.25 337.63 184.74 337.05 186.19 C 336.74 186.97 336.34 188.23 336.78 188.67 Z" fill="#1a4e72" fill-rule="evenodd" group-id="3" node-id="459" stroke="none" target-height="4.3121643" target-width="4.5045776" target-x="336.59818" target-y="184.66121"></path><path d="M 354.11 148.90 C 354.46 147.96 354.75 146.95 355.10 146.02 C 359.08 147.02 361.19 150.00 362.53 153.22 C 363.86 156.42 364.33 160.38 364.55 164.81 C 364.76 168.95 364.85 173.54 364.25 178.37 C 363.68 182.89 362.84 187.51 360.41 189.80 C 359.08 191.05 357.15 191.84 355.09 192.07 C 354.36 192.16 353.57 192.06 352.71 192.08 C 351.90 192.10 350.92 191.88 350.91 191.08 C 350.89 189.98 352.27 189.85 353.06 189.68 C 355.79 189.11 357.98 187.65 359.19 185.29 C 359.85 184.00 360.13 182.47 360.52 180.67 C 360.86 179.17 361.23 177.31 361.49 175.61 C 362.57 168.45 361.97 161.61 360.60 156.05 C 360.26 154.70 359.76 153.39 359.01 152.22 C 358.32 151.16 357.32 149.94 356.26 149.40 C 355.68 149.11 355.05 149.01 354.11 148.90 Z" fill="#e24e6a" fill-rule="evenodd" group-id="3" node-id="461" stroke="none" target-height="46.059006" target-width="13.794128" target-x="350.913" target-y="146.023"></path><path d="M 351.23 192.71 C 350.44 192.90 349.74 192.04 349.09 191.49 C 348.47 190.96 347.92 190.50 348.00 189.84 C 348.09 189.19 348.70 188.99 349.29 188.78 C 349.93 188.55 350.44 188.31 351.00 188.30 C 352.40 188.25 352.53 188.90 352.28 190.44 C 352.14 191.27 351.83 192.56 351.23 192.71 Z" fill="#1a4e72" fill-rule="evenodd" group-id="3" node-id="463" stroke="none" target-height="4.4089966" target-width="4.3766785" target-x="348.005" target-y="188.296"></path><path d="M 358.39 145.64 C 358.54 145.01 358.15 144.39 357.52 144.24 L 355.20 143.71 C 354.57 143.56 353.94 143.95 353.80 144.58 L 353.23 147.06 C 353.08 147.68 353.47 148.31 354.10 148.46 L 356.43 148.99 C 357.06 149.14 357.68 148.75 357.82 148.12 L 358.39 145.64 Z" fill="#e24e6a" fill-rule="evenodd" group-id="3" node-id="465" stroke="none" target-height="5.3089447" target-width="5.1914063" target-x="353.21484" target-y="143.69472"></path><path d="M 326.10 120.31 C 326.66 119.58 327.55 118.87 328.57 118.39 L 327.92 115.33 C 323.68 116.49 322.21 119.71 321.25 122.79 C 320.33 125.77 320.00 128.88 319.66 131.88 C 318.99 137.69 319.06 143.59 319.18 149.44 C 320.23 149.50 321.29 149.59 322.32 149.43 C 322.50 144.96 322.43 139.91 322.66 134.98 C 322.91 129.43 323.18 124.11 326.10 120.31 Z" fill="#e24e6a" fill-rule="evenodd" group-id="3" node-id="467" stroke="none" target-height="34.192993" target-width="9.450256" target-x="319.11975" target-y="115.325"></path><path d="M 319.42 147.84 C 322.01 146.83 324.93 148.10 325.94 150.69 C 326.95 153.29 325.68 156.20 323.09 157.22 C 320.50 158.23 317.58 156.96 316.57 154.36 C 315.56 151.77 316.83 148.85 319.42 147.84 Z" fill="#1a4e72" fill-rule="evenodd" group-id="3" node-id="469" stroke="none" target-height="10.013412" target-width="10.008728" target-x="316.2512" target-y="147.52176"></path><path d="M 320.15 149.69 C 321.71 149.08 323.48 149.85 324.09 151.41 C 324.70 152.99 323.93 154.75 322.36 155.37 C 320.80 155.98 319.03 155.20 318.42 153.64 C 317.81 152.07 318.58 150.30 320.15 149.69 Z" fill="#ffffff" fill-rule="evenodd" group-id="3" node-id="471" stroke="none" target-height="6.0960846" target-width="6.088806" target-x="318.2115" target-y="149.47935"></path><path d="M 347.15 213.34 C 361.94 209.48 377.55 206.67 391.77 204.79 C 389.03 198.77 379.07 176.23 376.81 170.06 C 385.80 166.96 394.56 163.08 403.64 160.26 C 409.04 171.65 423.08 199.88 426.22 211.90 C 427.10 215.29 428.50 219.85 424.98 223.36 C 422.71 225.63 418.46 226.97 414.78 227.82 C 403.36 230.46 392.43 229.91 380.41 229.33 C 372.45 228.96 357.37 228.78 349.28 228.30 C 345.86 228.10 346.42 213.53 347.15 213.34 Z" fill="#ffcad4" fill-rule="evenodd" group-id="3" node-id="473" stroke="none" target-height="69.52002" target-width="80.65259" target-x="346.59927" target-y="160.262"></path><path d="M 404.15 203.24 C 403.52 204.78 401.71 204.39 400.51 204.48 C 397.62 204.71 394.68 204.85 391.75 204.79 C 391.76 204.79 391.77 204.79 391.77 204.79 C 390.91 202.91 390.12 201.00 389.35 199.08 C 392.82 199.34 396.55 200.18 400.14 201.31 C 401.55 201.74 403.22 202.05 404.15 203.24 Z" fill="#ff8c9c" fill-rule="nonzero" group-id="3" node-id="475" stroke="none" target-height="5.7109985" target-width="14.803986" target-x="389.345" target-y="199.084"></path><path d="M 312.66 205.49 C 316.88 204.55 321.85 204.79 325.71 204.96 C 324.09 204.24 321.63 203.48 319.43 202.53 C 317.72 201.79 313.89 200.10 314.36 198.57 C 314.84 196.98 317.69 197.26 319.23 197.46 C 321.31 197.73 323.19 198.16 324.87 198.49 C 326.56 198.82 328.79 199.24 330.62 199.85 C 332.68 200.53 334.90 201.28 336.77 202.49 C 338.36 203.52 339.79 205.27 341.15 206.76 C 341.70 207.37 342.46 208.16 343.26 208.92 C 344.06 209.70 344.89 210.80 345.63 211.09 C 346.35 211.37 370.21 208.26 372.52 207.80 C 372.57 208.12 358.17 221.93 359.15 227.85 C 358.82 227.87 358.50 227.89 358.17 227.91 C 354.59 228.12 350.86 228.44 346.90 228.40 C 343.22 228.36 338.68 228.52 335.01 226.97 C 330.60 225.09 328.40 222.30 325.12 219.85 C 323.66 220.20 322.46 220.99 320.73 221.34 C 319.59 221.56 316.43 221.95 316.15 220.31 C 315.90 218.85 318.28 217.61 319.18 217.04 C 320.64 216.12 321.63 215.52 322.95 214.96 C 322.84 214.91 322.78 214.98 322.68 214.95 C 319.81 214.69 315.96 214.46 312.87 213.92 C 311.85 213.74 310.18 213.66 310.06 212.33 C 309.91 210.57 314.52 210.04 315.44 209.74 C 314.43 209.62 313.52 209.66 312.24 209.43 C 311.29 209.26 309.27 208.75 309.22 207.74 C 309.14 206.31 311.56 205.73 312.66 205.49 Z" fill="#ffcad4" fill-rule="evenodd" group-id="3" node-id="477" stroke="none" target-height="31.094696" target-width="63.306" target-x="309.216" target-y="197.3053"></path><path d="M 312.22 214.75 C 311.23 214.45 309.89 213.61 309.90 212.34 C 309.92 210.28 314.52 210.04 315.44 209.74 C 312.55 210.66 310.90 211.50 311.45 212.44 C 312.32 213.91 319.35 213.42 320.83 213.60 C 321.92 213.73 326.42 214.10 327.38 214.70 C 326.18 214.89 324.02 214.84 322.90 214.98 C 317.15 215.70 314.81 215.53 312.22 214.75 Z" fill="#ff8c9c" fill-rule="nonzero" group-id="3" node-id="479" stroke="none" target-height="5.674164" target-width="17.47998" target-x="309.903" target-y="209.739"></path><path d="M 312.75 206.61 C 312.89 207.79 315.72 208.01 317.22 208.37 C 318.76 208.75 321.82 208.96 323.28 209.45 C 321.47 209.69 316.39 209.78 315.44 209.74 C 314.43 209.62 313.52 209.66 312.24 209.43 C 311.29 209.26 309.27 208.75 309.22 207.74 C 309.14 206.31 311.56 205.73 312.66 205.49 C 313.30 205.34 313.96 205.23 314.62 205.15 C 313.35 205.56 312.65 205.68 312.75 206.61 Z" fill="#ff8c9c" fill-rule="nonzero" group-id="3" node-id="481" stroke="none" target-height="4.5919952" target-width="14.062012" target-x="309.218" target-y="205.147"></path><path d="M 317.36 219.63 C 318.65 220.82 324.86 218.14 325.63 218.09 C 328.90 222.67 337.83 227.21 344.60 228.38 C 341.44 228.36 337.94 228.21 335.01 226.97 C 330.60 225.10 328.40 222.30 325.13 219.85 C 323.66 220.20 322.46 220.99 320.73 221.34 C 319.59 221.56 316.43 221.95 316.15 220.31 C 315.90 218.85 318.28 217.62 319.18 217.04 C 318.04 218.08 316.49 218.85 317.36 219.63 Z" fill="#ff8c9c" fill-rule="nonzero" group-id="3" node-id="483" stroke="none" target-height="11.337006" target-width="28.449982" target-x="316.152" target-y="217.045"></path><path d="M 316.13 198.22 C 316.11 199.09 318.35 200.63 319.87 201.41 C 322.86 202.95 326.61 204.29 329.26 205.32 C 328.78 205.88 327.63 205.47 326.76 205.24 C 326.42 205.15 326.07 205.06 325.71 204.96 C 324.09 204.24 321.63 203.48 319.43 202.53 C 317.72 201.79 313.89 200.10 314.36 198.57 C 314.64 197.62 315.77 197.34 316.96 197.31 C 316.48 197.47 316.14 197.72 316.13 198.22 Z" fill="#ff8c9c" fill-rule="nonzero" group-id="3" node-id="485" stroke="none" target-height="8.270508" target-width="14.908997" target-x="314.355" target-y="197.306"></path><path d="M 373.66 176.92 C 387.85 173.85 399.12 167.88 409.40 160.90 C 406.63 154.45 402.14 147.83 397.07 141.79 C 392.27 136.07 386.55 130.06 380.44 127.00 C 375.65 124.60 367.95 123.71 364.11 127.92 C 361.79 130.48 361.28 134.54 361.65 139.63 C 362.62 153.29 369.72 166.63 373.66 176.92 Z" fill="#b9d5e8" fill-rule="evenodd" group-id="3" node-id="487" stroke="none" target-height="51.936752" target-width="47.844025" target-x="361.554" target-y="124.980255"></path><path d="M 373.66 176.92 C 387.85 173.85 399.12 167.88 409.40 160.90 C 406.63 154.45 402.14 147.83 397.07 141.79 C 392.27 136.07 386.55 130.06 380.44 127.00 C 375.65 124.60 367.95 123.71 364.11 127.92 C 361.79 130.48 361.28 134.54 361.65 139.63 C 362.62 153.29 369.72 166.63 373.66 176.92 Z" fill="#1a4e72" fill-opacity="0.16" fill-rule="evenodd" group-id="3,6" node-id="491" stroke-linecap="butt" stroke-opacity="0.16" stroke-width="1" target-height="51.936752" target-width="47.844025" target-x="361.554" target-y="124.980255"></path><path d="M 378.52 132.01 C 381.03 130.82 375.41 126.35 374.83 129.01 C 374.53 130.41 377.20 131.75 378.52 132.01 Z" fill="#ffffff" fill-rule="evenodd" group-id="3" node-id="494" stroke="none" target-height="3.8174133" target-width="4.2845154" target-x="374.83" target-y="128.18959"></path><path d="M 383.34 132.45 C 382.78 132.28 381.54 132.25 381.29 133.41 C 380.97 134.92 383.25 137.01 384.00 138.00 C 384.92 139.22 386.09 141.92 387.79 141.71 C 390.21 141.40 387.83 137.67 386.96 136.42 C 386.50 135.76 385.98 135.15 385.56 134.61 C 384.84 133.68 384.43 132.77 383.34 132.45 Z" fill="#ffffff" fill-rule="evenodd" group-id="3" node-id="496" stroke="none" target-height="9.274124" target-width="7.5525513" target-x="381.289" target-y="132.43288"></path><path d="M 202.25 464.07 L 199.56 493.47 L 220.75 503.91 C 220.75 503.91 236.33 495.38 233.49 493.84 C 232.33 493.21 228.41 491.10 227.28 486.62 C 225.43 479.24 228.41 465.82 228.41 465.82 L 202.25 464.07 Z" fill="#ffcad4" fill-rule="evenodd" group-id="3" node-id="498" stroke="none" target-height="39.84601" target-width="34.239197" target-x="199.56" target-y="464.068"></path><path d="M 199.71 489.50 C 204.17 493.33 209.93 495.69 216.16 495.69 C 222.04 495.69 224.69 493.41 229.03 489.95 C 229.04 489.96 229.04 489.97 229.05 489.98 C 230.08 492.28 243.97 493.80 246.62 494.85 C 250.25 496.30 254.62 497.18 257.03 500.55 C 258.74 502.94 259.65 506.36 258.07 509.99 C 258.07 509.99 253.82 510.12 251.69 510.15 C 251.04 510.17 250.40 510.17 249.75 510.18 C 249.75 510.18 249.09 510.19 249.08 510.19 C 236.75 510.37 216.88 510.28 204.22 510.22 C 201.93 510.20 198.95 510.57 198.21 509.52 C 198.10 509.36 198.03 509.14 197.98 508.88 C 197.82 507.98 198.04 506.56 198.16 505.21 C 198.50 501.61 199.11 495.43 199.71 489.50 Z" fill="#e24e6a" fill-rule="nonzero" group-id="3" node-id="500" stroke="none" target-height="20.795502" target-width="60.924896" target-x="197.96625" target-y="489.498"></path><path d="M 69.13 440.85 L 53.11 462.21 L 64.17 484.50 C 64.17 484.50 81.70 485.83 80.07 483.03 C 79.41 481.89 77.38 477.54 78.75 473.14 C 81.01 465.87 90.54 455.97 90.54 455.97 L 69.13 440.85 Z" fill="#ffcad4" fill-rule="evenodd" group-id="3" node-id="502" stroke="none" target-height="43.939056" target-width="37.434" target-x="53.11" target-y="440.848"></path><path d="M 53.71 461.23 C 55.52 466.83 59.21 471.84 64.53 475.09 C 69.54 478.15 73.00 477.58 78.52 476.89 C 78.51 476.90 78.50 476.91 78.50 476.92 C 78.19 479.43 89.25 487.95 90.96 490.24 C 93.14 493.16 96.15 495.85 96.78 499.66 C 97.38 503.32 95.89 506.99 92.85 509.13 C 92.85 509.13 89.15 507.02 87.32 505.94 C 86.76 505.62 86.21 505.28 85.65 504.95 C 85.65 504.95 85.08 504.62 85.08 504.62 C 74.45 498.34 57.55 487.91 46.77 481.26 C 44.82 480.06 42.09 478.82 42.00 477.54 C 41.99 477.35 42.04 477.12 42.14 476.87 C 42.48 476.01 43.40 474.92 44.20 473.84 C 46.37 470.93 50.11 465.98 53.71 461.23 Z" fill="#e24e6a" fill-rule="nonzero" group-id="3" node-id="504" stroke="none" target-height="47.900024" target-width="54.904068" target-x="42" target-y="461.231"></path><path d="M 234.89 270.20 C 237.97 287.16 241.05 303.78 244.64 320.70 C 248.22 337.63 252.30 354.09 252.30 373.29 C 252.30 391.87 248.86 409.72 245.33 426.58 C 241.84 443.26 238.22 459.58 233.49 474.99 C 222.02 474.62 210.23 474.56 199.01 473.94 C 197.25 440.06 208.76 412.06 204.93 379.56 C 203.25 365.29 199.33 351.31 196.23 337.42 C 193.08 323.36 189.92 309.36 187.52 295.28 C 181.91 311.76 177.87 328.50 173.24 344.39 C 170.81 352.71 168.43 360.70 164.88 367.72 C 161.41 374.58 157.22 380.57 152.69 386.88 C 139.45 405.33 87.85 466.03 85.89 466.28 C 79.88 462.38 60.34 450.82 58.80 449.11 C 65.33 435.83 79.82 412.56 87.83 400.26 C 99.60 382.18 114.25 365.73 121.00 342.64 C 127.68 319.77 130.81 294.37 136.67 269.86 C 169.27 269.64 202.87 269.00 234.89 270.20 Z" fill="#1a4e72" fill-rule="evenodd" group-id="3" node-id="506" stroke="none" target-height="205.45941" target-width="193.495" target-x="58.802" target-y="269.5286"></path><path d="M 158.35 361.41 C 156.10 362.61 153.93 366.31 152.00 370.07 C 151.18 371.69 149.89 374.32 151.24 375.21 C 152.87 376.30 154.81 373.54 155.51 372.56 C 157.69 369.43 159.69 365.21 160.10 362.65 C 159.93 362.07 159.05 361.49 158.35 361.41 Z" fill="#ffffff" fill-rule="evenodd" group-id="3" node-id="508" stroke="none" target-height="14.051758" target-width="9.450394" target-x="150.6546" target-y="361.411"></path><path d="M 148.47 368.00 C 145.55 365.12 140.42 372.49 143.43 374.12 C 144.72 374.82 148.53 372.17 149.13 370.04 C 149.35 369.27 148.98 368.49 148.47 368.00 Z" fill="#ffffff" fill-rule="evenodd" group-id="3" node-id="510" stroke="none" target-height="6.8862915" target-width="6.65744" target-x="142.53397" target-y="367.32745"></path><path d="M 240.69 392.28 C 240.40 390.25 241.76 387.07 243.29 384.04 C 243.94 382.73 245.03 380.65 246.26 381.10 C 247.74 381.65 246.88 384.22 246.56 385.13 C 245.57 388.04 243.79 391.34 242.32 392.82 C 241.87 393.00 241.06 392.69 240.69 392.28 Z" fill="#ffffff" fill-rule="evenodd" group-id="3" node-id="512" stroke="none" target-height="11.752472" target-width="6.377121" target-x="240.688" target-y="381.07153"></path><path d="M 241.10 376.66 C 237.84 376.13 240.18 369.30 242.66 370.47 C 243.74 370.98 243.84 374.71 242.74 376.11 C 242.34 376.62 241.66 376.76 241.10 376.66 Z" fill="#ffffff" fill-rule="evenodd" group-id="3" node-id="514" stroke="none" target-height="6.2831726" target-width="4.009247" target-x="239.50479" target-y="370.3788"></path><path d="M 246.88 370.10 C 245.70 370.03 245.14 368.43 245.20 366.73 C 245.25 365.36 245.97 362.78 247.44 363.32 C 248.09 363.57 248.72 364.79 248.70 366.20 C 248.69 367.86 248.39 370.19 246.88 370.10 Z" fill="#ffffff" fill-rule="evenodd" group-id="3" node-id="516" stroke="none" target-height="6.8057556" target-width="3.4960022" target-x="245.203" target-y="363.29224"></path><path d="M 127.58 347.69 C 133.84 326.31 132.92 294.00 137.57 269.85 C 137.27 269.85 136.97 269.85 136.67 269.86 C 130.81 294.37 127.68 319.77 121.00 342.64 C 114.25 365.73 99.60 382.18 87.83 400.25 C 79.82 412.56 65.33 435.83 58.80 449.11 C 59.34 449.70 62.05 451.49 65.61 453.73 C 72.22 440.39 86.49 417.48 94.42 405.31 C 106.19 387.23 120.84 370.78 127.58 347.69 Z" fill="#14334f" fill-rule="nonzero" group-id="3" node-id="518" stroke="none" target-height="183.88" target-width="78.769" target-x="58.802" target-y="269.848"></path><path d="M 215.58 376.95 C 213.90 362.67 189.93 309.36 187.52 295.28 C 189.93 309.36 193.08 323.36 196.23 337.42 C 199.33 351.31 203.25 365.29 204.93 379.56 C 208.76 412.06 197.25 440.06 199.01 473.94 C 202.45 474.13 205.94 474.26 209.46 474.37 C 207.87 440.72 219.38 409.25 215.58 376.95 Z" fill="#14334f" fill-rule="nonzero" group-id="3" node-id="520" stroke="none" target-height="179.09299" target-width="28.843155" target-x="187.517" target-y="295.278"></path><path d="M 193.13 251.17 C 195.51 251.17 193.92 273.14 193.09 281.51 C 192.65 285.95 192.53 289.96 190.68 291.48 C 189.04 292.83 185.26 293.84 184.41 292.84 C 183.47 291.27 185.43 289.65 186.59 288.21 C 189.29 284.88 189.37 276.70 190.10 270.24 C 190.83 263.85 191.71 251.17 193.13 251.17 Z" fill="#14334f" fill-rule="evenodd" group-id="3" node-id="522" stroke="none" target-height="42.06752" target-width="10.220779" target-x="184.16145" target-y="251.166"></path><path d="M 161.69 276.75 C 165.30 277.61 161.59 288.23 151.89 289.56 C 148.34 290.04 141.25 291.25 141.06 289.35 C 140.94 288.13 150.10 287.28 155.43 281.12 C 156.95 279.36 159.59 276.25 161.69 276.75 Z" fill="#14334f" fill-rule="evenodd" group-id="3" node-id="524" stroke="none" target-height="13.600342" target-width="21.983261" target-x="141.064" target-y="276.755"></path><path d="M 208.10 276.75 C 205.01 277.61 208.19 288.23 216.47 289.56 C 219.50 290.04 225.55 291.25 225.72 289.35 C 225.82 288.13 218.00 287.28 213.45 281.12 C 212.15 279.36 209.90 276.25 208.10 276.75 Z" fill="#14334f" fill-rule="evenodd" group-id="3" node-id="526" stroke="none" target-height="13.600342" target-width="18.776962" target-x="206.94003" target-y="276.755"></path><path d="M 130.05 269.59 C 130.05 269.59 192.61 278.85 239.68 269.95 C 238.63 256.55 233.58 243.00 236.40 230.61 C 238.52 221.33 241.37 212.16 243.83 203.23 C 246.29 194.30 249.03 185.08 251.26 175.85 C 255.03 160.30 266.61 143.18 257.41 130.23 C 250.33 120.27 228.69 112.30 209.38 111.20 C 180.17 109.53 171.46 116.25 164.24 127.17 C 148.15 151.53 145.28 182.09 138.44 213.42 C 135.00 229.14 129.98 252.79 130.05 269.59 Z" fill="#e24e6a" fill-rule="evenodd" group-id="3" node-id="528" stroke="none" target-height="162.86217" target-width="130.82344" target-x="130.049" target-y="110.948746"></path><path d="M 208.84 93.19 C 208.92 94.72 205.58 108.27 204.99 113.56 C 203.88 123.67 211.83 131.39 219.56 131.52 C 225.69 131.62 231.63 126.50 233.10 117.23 C 233.61 114.09 234.24 110.98 234.71 107.84 C 236.23 107.28 238.09 106.69 239.74 105.89 C 246.85 102.42 248.98 96.23 250.97 85.11 C 253.13 73.07 257.38 60.79 239.34 55.05 C 231.11 52.43 224.20 53.97 219.48 58.00 C 207.79 67.97 208.77 91.85 208.84 93.19 Z" fill="#ffcad4" fill-rule="evenodd" group-id="3" node-id="530" stroke="none" target-height="77.773636" target-width="48.01526" target-x="204.96362" target-y="53.74437"></path><path d="M 234.71 107.84 C 224.20 108.36 218.28 99.53 218.28 99.53 C 218.28 99.53 217.95 111.71 233.10 117.23 L 234.71 107.84 Z" fill="#ff8c9c" fill-rule="nonzero" group-id="3" node-id="532" stroke="none" target-height="17.698997" target-width="16.429" target-x="218.278" target-y="99.528"></path><path d="M 223.42 48.36 C 220.80 46.81 218.61 44.99 215.43 44.93 C 198.61 44.62 201.87 67.23 201.67 75.30 C 201.54 80.55 201.94 98.69 207.72 98.33 C 210.74 98.13 215.88 61.82 229.00 65.19 C 232.12 66.00 245.96 69.36 251.07 69.89 C 256.68 70.49 266.00 68.45 265.06 61.45 C 264.55 57.70 260.98 56.28 256.19 56.01 C 256.93 54.08 257.58 51.51 257.39 49.44 C 256.62 40.99 243.96 36.02 237.23 46.51 C 237.06 40.19 229.29 38.36 225.70 42.82 C 224.47 44.37 224.18 46.19 223.42 48.36 Z" fill="#1a4e72" fill-rule="evenodd" group-id="3" node-id="534" stroke="none" target-height="57.965828" target-width="63.522385" target-x="201.55016" target-y="40.361176"></path><path d="M 205.07 77.61 C 204.30 80.91 206.52 89.35 210.48 89.76 C 213.46 90.07 214.88 83.37 215.65 80.06 C 216.41 76.76 216.55 74.04 216.55 74.04 C 213.68 74.14 210.94 73.08 209.56 73.25 C 206.44 73.65 205.60 75.31 205.07 77.61 Z" fill="#ffcad4" fill-rule="evenodd" group-id="3" node-id="536" stroke="none" target-height="16.510002" target-width="11.626648" target-x="204.92136" target-y="73.252"></path><path d="M 216.22 68.00 C 216.22 68.00 213.04 85.56 217.10 86.19 C 220.41 86.70 221.32 65.25 227.62 64.98 L 221.04 63.27 L 216.22 68.00 Z" fill="#1a4e72" fill-rule="evenodd" group-id="3" node-id="538" stroke="none" target-height="22.921005" target-width="12.585648" target-x="215.03336" target-y="63.267"></path><path d="M 232.59 84.80 C 233.35 87.02 232.17 89.44 229.96 90.21 C 227.74 90.97 225.32 89.80 224.55 87.58 C 223.78 85.36 224.96 82.93 227.18 82.17 C 229.39 81.41 231.81 82.57 232.59 84.80" fill="#ff8c9c" fill-rule="nonzero" group-id="3" node-id="540" stroke="none" target-height="8.482986" target-width="8.480179" target-x="224.32738" target-y="81.94726"></path><path d="M 246.25 90.40 C 246.71 91.73 247.96 92.79 249.25 93.09 C 249.29 92.93 250.53 88.09 250.94 85.30 C 250.28 85.16 249.38 85.13 248.70 85.36 C 246.63 86.08 245.54 88.33 246.25 90.40 Z" fill="#ff8c9c" fill-rule="nonzero" group-id="3" node-id="542" stroke="none" target-height="7.8997574" target-width="4.8945465" target-x="246.04045" target-y="85.191246"></path><path d="M 225.83 73.31 L 226.62 74.64 C 230.68 72.23 235.32 74.16 236.81 75.40 L 237.80 74.22 C 235.48 72.28 230.22 70.72 225.83 73.31 Z" fill="#1a4e72" fill-rule="evenodd" group-id="3" node-id="544" stroke="none" target-height="3.4362183" target-width="11.966003" target-x="225.83" target-y="71.96478"></path><path d="M 229.96 77.36 C 232.05 78.41 234.34 78.47 236.03 78.18 C 236.09 78.69 236.14 79.21 236.20 79.72 C 234.11 80.07 231.53 79.89 229.21 78.71 C 229.45 78.25 229.70 77.80 229.96 77.36 Z" fill="#1a4e72" fill-rule="evenodd" group-id="3" node-id="546" stroke="none" target-height="2.521431" target-width="6.9839935" target-x="229.214" target-y="77.355"></path><path d="M 243.45 76.33 C 243.34 76.03 243.23 75.73 243.12 75.43 C 247.18 73.96 251.47 75.72 253.35 77.57 L 252.26 78.67 C 251.07 77.48 247.37 75.53 243.67 76.87 C 243.59 76.69 243.51 76.51 243.45 76.33 Z" fill="#1a4e72" fill-rule="evenodd" group-id="3" node-id="548" stroke="none" target-height="3.7495956" target-width="10.226013" target-x="243.122" target-y="74.9224"></path><path d="M 244.25 79.83 C 246.15 80.80 248.24 80.86 249.83 80.59 L 250.21 82.10 C 248.23 82.45 245.81 82.33 243.62 81.23 C 243.85 80.77 244.05 80.30 244.25 79.83 Z" fill="#1a4e72" fill-rule="evenodd" group-id="3" node-id="550" stroke="none" target-height="2.4387894" target-width="6.5820007" target-x="243.623" target-y="79.826"></path><path d="M 240.84 80.19 C 241.77 80.16 242.85 88.93 242.49 89.78 C 242.03 90.85 238.04 90.79 237.82 90.30 C 237.20 88.89 239.43 80.24 240.84 80.19" fill="#ff8c9c" fill-rule="evenodd" group-id="3" node-id="552" stroke="none" target-height="10.427956" target-width="4.7987823" target-x="237.71614" target-y="80.191"></path><path d="M 239.39 98.88 L 240.94 98.26 C 240.92 98.21 239.02 93.58 233.10 94.87 L 233.46 96.50 C 237.96 95.52 239.34 98.74 239.39 98.88 Z" fill="#ff8c9c" fill-rule="nonzero" group-id="3" node-id="554" stroke="none" target-height="4.221245" target-width="7.8389893" target-x="233.104" target-y="94.654755"></path><path d="M 217.38 50.61 C 217.31 47.76 211.19 48.96 211.90 51.22 C 212.21 52.20 215.39 52.72 216.72 51.95 C 217.19 51.67 217.39 51.10 217.38 50.61 Z" fill="#ffffff" fill-rule="evenodd" group-id="3" node-id="556" stroke="none" target-height="3.360199" target-width="5.475006" target-x="211.903" target-y="48.958176"></path><path d="M 211.09 54.78 C 211.17 53.77 209.86 53.10 208.41 52.95 C 207.23 52.83 204.94 53.14 205.23 54.46 C 205.36 55.05 206.33 55.72 207.54 55.88 C 208.96 56.06 210.98 56.08 211.09 54.78 Z" fill="#ffffff" fill-rule="evenodd" group-id="3" node-id="558" stroke="none" target-height="3.0150223" target-width="5.8580017" target-x="205.23" target-y="52.949"></path><path d="M 219.56 131.52 C 220.92 131.10 210.32 126.90 207.63 104.58 C 207.09 100.11 195.23 104.62 189.26 111.65 C 184.89 116.80 212.69 133.64 219.56 131.52 Z" fill="#ff8c9c" fill-rule="evenodd" group-id="3" node-id="560" stroke="none" target-height="28.87983" target-width="30.802628" target-x="188.83743" target-y="102.812325"></path><path d="M 219.56 131.52 C 219.18 130.34 228.71 131.55 234.28 110.63 C 235.42 106.35 241.84 113.83 243.44 122.06 C 244.60 128.08 220.39 134.12 219.56 131.52 Z" fill="#ff8c9c" fill-rule="evenodd" group-id="3" node-id="562" stroke="none" target-height="22.702545" target-width="23.873001" target-x="219.563" target-y="109.40871"></path><path d="M 207.87 155.44 C 207.86 155.44 207.84 155.43 207.83 155.43 L 205.78 155.02 C 205.29 154.92 204.97 154.49 205.07 154.06 C 205.18 153.62 205.67 153.35 206.15 153.44 L 206.22 153.45 L 212.09 128.25 C 212.19 127.82 212.68 127.54 213.16 127.64 C 213.66 127.74 213.97 128.17 213.87 128.60 L 208.00 153.81 L 208.19 153.85 C 208.69 153.94 209.01 154.38 208.91 154.82 C 208.81 155.24 208.35 155.51 207.87 155.44 Z" fill="#ffffff" fill-rule="nonzero" group-id="3" node-id="564" stroke="none" target-height="27.803001" target-width="8.796997" target-x="205.073" target-y="127.635"></path><path d="M 223.08 157.13 C 222.62 157.06 222.28 156.67 222.32 156.24 C 222.37 155.80 222.81 155.48 223.31 155.53 L 223.38 155.54 L 226.11 130.57 C 226.16 130.13 226.60 129.81 227.11 129.86 C 227.62 129.92 227.97 130.32 227.92 130.76 L 225.19 155.72 L 225.40 155.74 C 225.90 155.79 226.27 156.19 226.22 156.64 C 226.17 157.08 225.72 157.41 225.22 157.35 L 224.13 157.24 C 224.12 157.24 224.12 157.24 224.12 157.24 L 223.14 157.14 C 223.12 157.14 223.10 157.14 223.08 157.13 Z" fill="#ffffff" fill-rule="nonzero" group-id="3" node-id="566" stroke="none" target-height="27.490997" target-width="5.599991" target-x="222.324" target-y="129.862"></path><path d="M 168.92 161.28 C 168.11 161.24 166.18 161.30 165.96 162.84 C 165.75 164.23 169.76 166.50 171.78 168.07 C 173.91 169.72 176.47 171.07 178.46 172.91 C 179.86 174.21 180.97 176.21 181.93 177.80 C 182.95 179.49 183.47 181.63 184.64 182.91 C 187.22 185.76 191.81 186.63 195.50 187.79 C 198.41 184.06 202.85 178.73 205.80 175.72 C 203.03 174.22 201.94 171.65 200.45 169.28 C 198.34 165.94 196.68 163.03 193.96 159.67 C 192.60 157.99 191.19 156.23 189.39 155.25 C 187.58 154.28 185.36 154.08 183.34 153.91 C 181.48 153.76 178.48 153.24 178.19 154.80 C 177.94 156.20 181.59 156.59 183.04 157.56 C 186.20 159.68 187.27 162.61 187.18 162.78 C 184.38 160.97 180.43 158.09 176.80 157.73 C 174.98 157.54 165.26 157.64 168.92 161.28" fill="#ffcad4" fill-rule="evenodd" group-id="3" node-id="568" stroke="none" target-height="34.077744" target-width="39.841003" target-x="165.956" target-y="153.71326"></path><path d="M 239.73 189.72 C 230.32 186.28 214.24 177.52 203.66 174.12 C 198.84 177.76 195.99 183.24 191.83 187.50 C 204.54 199.79 216.39 211.07 232.37 220.29 C 236.39 222.61 245.31 227.88 251.62 226.03 C 269.32 220.82 267.14 173.04 264.92 155.65 C 263.77 146.64 262.06 137.24 258.50 131.44 C 256.21 127.70 251.83 123.66 244.65 125.39 C 238.44 126.90 236.71 130.62 235.20 133.99 C 231.51 142.20 238.91 180.39 239.73 189.72 Z" fill="#ff8c9c" fill-rule="evenodd" group-id="3" node-id="570" stroke="none" target-height="101.38617" target-width="74.56287" target-x="191.831" target-y="125.01991"></path><path d="M 203.81 198.84 C 203.81 198.84 195.86 191.39 191.83 187.50 C 195.99 183.25 198.84 177.76 203.66 174.12 C 209.76 176.08 217.69 179.83 225.12 183.30 C 224.03 190.61 211.57 198.95 203.81 198.84 Z" fill="#e24e6a" fill-opacity="0.63" fill-rule="evenodd" group-id="3,7" node-id="574" stroke-linecap="butt" stroke-opacity="0.63" stroke-width="1" target-height="24.723007" target-width="33.289" target-x="191.831" target-y="174.122"></path><path d="M 255.46 207.97 C 257.68 209.78 259.34 202.56 256.60 203.21 C 255.17 203.54 255.11 206.63 255.46 207.97 Z" fill="#ffffff" fill-rule="evenodd" group-id="3" node-id="577" stroke="none" target-height="5.051758" target-width="2.7427979" target-x="255.28351" target-y="203.207"></path><path d="M 257.20 212.65 C 257.10 212.05 256.58 210.88 255.40 211.17 C 253.85 211.54 252.93 214.59 252.33 215.74 C 251.61 217.12 249.62 219.42 250.58 220.90 C 251.94 223.02 254.35 219.14 255.12 217.78 C 255.53 217.05 255.86 216.30 256.18 215.67 C 256.72 214.59 257.39 213.80 257.20 212.65 Z" fill="#ffffff" fill-rule="evenodd" group-id="3" node-id="579" stroke="none" target-height="10.360962" target-width="6.8726807" target-x="250.32632" target-y="211.168"></path><path d="M 239.73 189.72 L 238.68 181.75 C 238.68 181.75 252.42 190.82 252.09 194.70 C 251.93 196.63 239.73 189.72 239.73 189.72 Z" fill="#e24e6a" fill-opacity="0.63" fill-rule="evenodd" group-id="3,8" node-id="583" stroke-linecap="butt" stroke-opacity="0.63" stroke-width="1" target-height="13.252075" target-width="13.408005" target-x="238.683" target-y="181.755"></path><path d="M 260.38 156.42 C 261.15 156.66 262.93 157.37 262.54 158.88 C 262.20 160.26 257.58 160.99 255.09 161.76 C 252.48 162.57 249.57 162.95 247.01 163.97 C 245.20 164.71 243.39 166.18 241.88 167.33 C 240.28 168.56 238.96 170.37 237.38 171.16 C 233.88 172.93 229.27 172.17 225.38 171.97 C 224.11 167.50 222.04 161.01 220.46 157.19 C 223.61 156.75 225.62 154.73 227.94 153.03 C 231.19 150.64 233.85 148.51 237.68 146.31 C 239.60 145.22 241.59 144.06 243.65 143.77 C 245.71 143.48 247.86 144.06 249.80 144.60 C 251.60 145.10 254.59 145.64 254.25 147.20 C 253.94 148.59 250.40 147.69 248.67 148.10 C 244.91 148.99 242.78 151.35 242.80 151.53 C 246.10 150.81 250.90 149.50 254.41 150.40 C 256.19 150.85 265.20 154.29 260.38 156.42" fill="#ffcad4" fill-rule="evenodd" group-id="3" node-id="586" stroke="none" target-height="28.600739" target-width="42.082" target-x="220.462" target-y="143.70279"></path><path d="M 253.21 147.93 C 250.90 148.68 248.31 148.15 246.02 149.06 C 243.88 149.90 243.21 151.34 242.80 151.53 C 242.69 149.65 243.43 148.67 245.31 147.54 C 247.70 146.10 249.94 148.88 253.21 147.93" fill="#ff8c9c" fill-rule="evenodd" group-id="3" node-id="588" stroke="none" target-height="4.3937683" target-width="10.404999" target-x="242.801" target-y="147.13524"></path><path d="M 260.38 156.42 C 256.08 156.28 250.09 157.16 246.01 158.36 C 250.38 155.99 256.20 155.75 260.38 156.42" fill="#ff8c9c" fill-rule="evenodd" group-id="3" node-id="590" stroke="none" target-height="2.2563782" target-width="14.367004" target-x="246.014" target-y="156.09962"></path><path d="M 244.47 154.97 C 247.89 152.17 256.97 150.75 260.48 153.20 C 257.14 152.29 249.48 152.76 244.47 154.97" fill="#ff8c9c" fill-rule="evenodd" group-id="3" node-id="592" stroke="none" target-height="3.0292206" target-width="16.00801" target-x="244.471" target-y="151.94278"></path><path d="M 229.82 172.12 C 227.19 167.16 223.62 161.51 221.12 156.44 C 207.45 161.28 188.73 171.50 176.24 177.45 C 179.90 169.17 193.23 143.24 194.40 131.86 C 195.47 121.52 186.84 110.09 174.83 116.35 C 167.64 120.10 162.71 128.79 158.59 136.63 C 149.89 153.24 138.93 190.09 139.03 200.70 C 139.13 211.93 144.48 219.41 157.61 218.21 C 165.19 217.52 172.41 213.55 178.89 209.94 C 185.89 206.03 190.88 202.29 196.46 198.15 C 208.49 189.25 220.35 182.58 229.82 172.12 Z" fill="#ff8c9c" fill-rule="evenodd" group-id="3" node-id="594" stroke="none" target-height="103.73471" target-width="90.785995" target-x="139.031" target-y="114.587006"></path><path d="M 147.78 212.84 C 148.41 211.18 147.87 208.23 147.16 205.37 C 146.85 204.15 146.33 202.17 145.21 202.32 C 143.85 202.50 144.09 204.83 144.18 205.67 C 144.46 208.31 145.34 211.45 146.29 212.98 C 146.64 213.21 147.38 213.11 147.78 212.84 Z" fill="#ffffff" fill-rule="evenodd" group-id="3" node-id="596" stroke="none" target-height="10.7790985" target-width="3.9378967" target-x="144.10538" target-y="202.317"></path><path d="M 149.97 204.85 C 152.82 205.02 152.15 198.79 149.83 199.31 C 148.82 199.54 148.02 202.68 148.68 204.07 C 148.92 204.58 149.47 204.82 149.97 204.85 Z" fill="#ffffff" fill-rule="evenodd" group-id="3" node-id="598" stroke="none" target-height="5.5370026" target-width="3.3767242" target-x="148.46141" target-y="199.314"></path><path d="M 145.67 189.19 C 146.67 189.36 147.45 188.11 147.72 186.66 C 147.94 185.50 147.83 183.17 146.48 183.35 C 145.88 183.43 145.12 184.35 144.87 185.55 C 144.56 186.95 144.38 188.97 145.67 189.19 Z" fill="#ffffff" fill-rule="evenodd" group-id="3" node-id="600" stroke="none" target-height="5.8329926" target-width="3.1304016" target-x="144.66913" target-y="183.354"></path><path d="M 176.24 177.45 C 176.24 177.45 161.73 183.72 161.73 180.68 C 161.74 178.38 180.03 169.34 180.03 169.34 L 176.24 177.45 Z" fill="#e24e6a" fill-opacity="0.63" fill-rule="evenodd" group-id="3,9" node-id="604" stroke-linecap="butt" stroke-opacity="0.63" stroke-width="1" target-height="12.17305" target-width="18.298996" target-x="161.733" target-y="169.339"></path></g></svg>