<?xml version="1.0" standalone="no"?><!DOCTYPE svg PUBLIC "-//W3C//DTD SVG 1.1//EN" "http://www.w3.org/Graphics/SVG/1.1/DTD/svg11.dtd"><svg height="512" legacy-metrics="false" node-id="1" sillyvg="true" template-height="512" template-width="512" version="1.1" viewBox="0 0 512 512" width="512" xmlns="http://www.w3.org/2000/svg" xmlns:xlink="http://www.w3.org/1999/xlink"><defs node-id="253"></defs><g node-id="474"><path d="M 413.79 102.04 C 412.08 103.43 411.74 105.72 410.86 107.69 C 409.20 111.41 407.26 114.77 402.54 115.30 C 400.05 115.58 397.74 114.77 397.26 116.51 C 396.82 118.04 398.82 119.10 399.31 119.63 C 401.39 121.86 403.01 124.20 402.83 128.08 C 402.60 132.93 399.49 139.27 402.49 139.99 C 404.69 140.53 406.10 136.22 406.87 134.83 C 409.35 130.31 410.79 127.02 415.46 125.47 C 416.88 125.00 420.52 125.42 420.90 123.27 C 421.30 121.09 418.32 120.29 417.47 119.17 C 416.14 117.42 415.29 114.76 415.33 111.70 C 415.37 108.82 416.53 105.21 416.16 103.17 C 416.14 102.23 415.24 101.20 413.79 102.04 Z" fill="#f7be4a" fill-rule="evenodd" group-id="1" node-id="259" stroke="none" target-height="38.264824" target-width="23.677826" target-x="397.22617" target-y="101.72718"></path><path d="M 64.59 401.87 C 66.31 403.26 66.64 405.54 67.52 407.51 C 69.18 411.24 71.12 414.60 75.84 415.12 C 78.33 415.40 80.64 414.59 81.12 416.34 C 81.56 417.87 79.56 418.93 79.07 419.46 C 76.99 421.69 75.37 424.03 75.55 427.90 C 75.78 432.76 78.90 439.10 75.89 439.82 C 73.69 440.36 72.28 436.05 71.52 434.65 C 69.03 430.14 67.59 426.84 62.92 425.30 C 61.49 424.83 57.86 425.25 57.48 423.10 C 57.08 420.92 60.06 420.12 60.91 418.99 C 62.24 417.25 63.09 414.59 63.05 411.52 C 63.01 408.65 61.85 405.05 62.22 403.00 C 62.24 402.06 63.14 401.03 64.59 401.87 Z" fill="#f7be4a" fill-rule="evenodd" group-id="1" node-id="261" stroke="none" target-height="38.266388" target-width="23.678242" target-x="57.476" target-y="401.5556"></path><path d="M 188.19 66.11 C 186.36 67.19 183.53 67.89 183.89 70.40 C 184.36 73.56 188.30 72.50 190.25 73.57 C 193.54 75.37 193.99 80.62 195.97 84.67 C 196.50 85.72 197.06 87.18 198.90 86.93 C 201.26 86.60 201.10 84.26 200.98 81.52 C 200.76 76.61 201.52 72.17 204.23 69.85 C 205.85 68.45 208.21 68.62 207.83 65.94 C 207.44 63.30 205.08 64.15 202.86 63.54 C 199.32 62.56 197.58 58.46 195.97 54.41 C 195.61 53.51 195.37 52.24 195.01 51.80 C 193.70 50.24 190.53 50.61 189.91 52.95 C 189.56 54.26 190.30 55.84 190.45 57.40 C 190.77 60.95 190.08 63.70 188.19 66.11 Z" fill="#f7be4a" fill-rule="evenodd" group-id="1" node-id="263" stroke="none" target-height="36.043266" target-width="23.932999" target-x="183.893" target-y="50.884735"></path><path d="M 452.90 453.25 C 451.44 454.11 449.18 454.66 449.47 456.66 C 449.85 459.18 452.98 458.34 454.54 459.19 C 457.16 460.62 457.52 464.80 459.10 468.02 C 459.51 468.86 459.96 470.02 461.42 469.82 C 463.30 469.57 463.18 467.70 463.08 465.52 C 462.90 461.61 463.51 458.07 465.67 456.23 C 466.97 455.12 468.84 455.25 468.53 453.12 C 468.23 451.00 466.35 451.69 464.58 451.20 C 461.76 450.42 460.37 447.16 459.10 443.93 C 458.81 443.21 458.61 442.20 458.33 441.85 C 457.28 440.60 454.76 440.90 454.27 442.77 C 453.99 443.81 454.57 445.07 454.69 446.31 C 454.95 449.14 454.40 451.32 452.90 453.25 Z" fill="#f7be4a" fill-rule="evenodd" group-id="1" node-id="265" stroke="none" target-height="28.707123" target-width="19.062012" target-x="449.472" target-y="441.1179"></path><path d="M 481.72 423.09 C 480.82 423.32 479.55 423.28 479.41 424.37 C 479.23 425.75 481.00 425.78 481.70 426.46 C 482.86 427.61 482.42 429.87 482.77 431.80 C 482.87 432.30 482.93 432.98 483.73 433.10 C 484.76 433.25 484.97 432.24 485.25 431.08 C 485.74 428.99 486.59 427.22 488.00 426.57 C 488.85 426.18 489.82 426.53 489.98 425.36 C 490.13 424.20 489.04 424.28 488.18 423.76 C 486.81 422.92 486.57 421.00 486.38 419.10 C 486.34 418.68 486.39 418.12 486.29 417.90 C 485.92 417.08 484.55 416.86 484.01 417.77 C 483.71 418.28 483.83 419.03 483.71 419.69 C 483.42 421.23 482.80 422.30 481.72 423.09 Z" fill="#f7be4a" fill-rule="evenodd" group-id="1" node-id="267" stroke="none" target-height="15.909393" target-width="10.574005" target-x="479.406" target-y="417.1886"></path><path d="M 114.57 222.73 C 113.26 223.07 111.42 223.00 111.20 224.60 C 110.94 226.62 113.53 226.65 114.53 227.64 C 116.23 229.31 115.60 232.59 116.10 235.41 C 116.24 236.14 116.33 237.12 117.50 237.29 C 118.99 237.50 119.30 236.04 119.70 234.35 C 120.42 231.32 121.66 228.74 123.71 227.79 C 124.94 227.23 126.36 227.74 126.58 226.03 C 126.81 224.35 125.22 224.47 123.97 223.70 C 121.98 222.49 121.63 219.69 121.35 216.94 C 121.29 216.33 121.36 215.51 121.21 215.18 C 120.69 214.00 118.69 213.68 117.90 215.00 C 117.47 215.74 117.64 216.83 117.46 217.80 C 117.04 220.03 116.14 221.58 114.57 222.73 Z" fill="#f7be4a" fill-rule="evenodd" group-id="1" node-id="269" stroke="none" target-height="23.14412" target-width="15.378998" target-x="111.204" target-y="214.15088"></path><path d="M 387.46 64.57 C 386.48 67.32 387.76 68.97 386.44 71.95 C 385.71 73.63 382.22 74.68 382.23 76.50 C 382.24 78.94 386.27 78.63 387.57 80.31 C 388.72 81.79 388.02 85.50 390.51 85.61 C 393.05 85.71 392.41 80.80 393.76 78.46 C 394.62 76.93 397.39 76.46 397.19 74.31 C 397.04 72.86 394.05 72.49 392.97 71.64 C 390.72 69.83 391.32 66.39 389.98 64.33 C 388.89 63.81 388.37 64.22 387.46 64.57 Z" fill="#f7be4a" fill-rule="evenodd" group-id="1" node-id="271" stroke="none" target-height="21.51587" target-width="14.959015" target-x="382.227" target-y="64.09413"></path><path d="M 116.64 412.76 C 115.66 415.51 116.94 417.16 115.63 420.15 C 114.89 421.83 111.41 422.87 111.41 424.70 C 111.42 427.13 115.46 426.82 116.75 428.51 C 117.90 429.99 117.21 433.69 119.70 433.80 C 122.23 433.90 121.59 428.99 122.95 426.65 C 123.81 425.12 126.57 424.65 126.37 422.51 C 126.22 421.06 123.23 420.69 122.15 419.83 C 119.91 418.03 120.50 414.58 119.17 412.52 C 118.07 412.01 117.55 412.41 116.64 412.76 Z" fill="#f7be4a" fill-rule="evenodd" group-id="1" node-id="273" stroke="none" target-height="21.514862" target-width="14.961006" target-x="111.409" target-y="412.28815"></path></g><g node-id="475"><path d="M 314.47 15.91 C 312.26 23.93 311.35 32.02 310.44 40.09 C 309.49 48.43 308.64 56.81 307.75 65.27 C 305.97 82.11 305.70 99.33 304.73 118.32 C 303.85 135.37 301.90 152.41 301.03 170.70 C 299.97 193.32 300.21 222.01 282.90 228.45 C 278.45 230.11 269.81 230.26 263.43 230.80 C 250.25 231.92 238.36 235.15 226.83 237.85 C 220.57 239.32 214.01 241.00 207.36 240.20 C 195.44 238.77 186.75 228.91 185.53 218.04 C 185.16 214.76 185.50 210.23 186.20 207.30 C 188.06 199.61 192.32 193.54 196.28 188.16 C 202.12 180.22 210.50 173.29 210.71 158.95 C 210.78 154.16 209.97 149.17 209.03 144.51 C 208.13 140.03 206.63 135.61 206.68 131.08 C 206.90 113.36 221.05 106.71 226.50 93.81 C 232.29 80.09 225.26 60.08 225.82 45.12 C 226.87 17.22 242.27 1.69 268.80 0.13 C 279.19 -0.48 288.64 1.10 296.00 3.82 C 303.25 6.51 309.95 10.49 314.47 15.91 Z" fill="#e34e6a" fill-rule="evenodd" group-id="2" node-id="278" stroke="none" target-height="240.38722" target-width="129.08362" target-x="185.38239" target-y="0.008646458"></path><path d="M 50.55 197.57 C 48.07 195.55 41.04 187.22 36.48 184.59 C 34.72 183.57 32.33 182.88 31.10 184.22 C 28.50 187.04 34.65 193.09 36.49 195.51 C 39.69 199.68 41.66 202.78 44.49 206.26 C 41.32 204.33 34.56 196.21 29.14 192.69 C 26.87 191.22 23.98 189.96 22.48 191.74 C 20.56 194.01 25.03 199.57 26.48 201.48 C 33.43 210.70 41.12 221.05 45.15 229.47 C 49.79 239.15 52.48 248.15 53.76 258.60 C 54.08 261.13 53.68 266.67 55.59 268.35 C 56.48 269.13 59.62 269.50 60.81 269.46 C 64.89 269.30 69.56 267.66 75.45 265.87 C 77.70 265.19 79.97 264.61 82.69 263.36 C 84.90 262.35 88.83 261.04 89.61 260.15 C 90.84 258.79 91.02 254.37 91.09 251.74 C 91.31 244.09 90.75 233.35 90.75 227.03 C 90.74 221.54 90.75 215.79 90.83 210.51 C 90.91 205.52 91.27 189.12 84.86 188.25 C 79.59 187.53 81.15 203.45 79.81 207.39 C 77.25 200.68 71.40 190.53 63.11 181.84 C 60.92 179.56 56.59 174.54 54.20 176.04 C 50.94 178.10 54.25 182.23 55.38 184.40 C 56.96 187.43 57.83 189.82 59.65 192.18 C 56.10 189.57 49.97 181.93 45.37 179.46 C 43.86 178.66 41.74 178.25 40.73 179.25 C 38.42 181.57 42.16 185.23 44.15 188.09 C 46.86 191.99 48.36 194.70 50.29 197.35 C 50.37 197.42 50.46 197.50 50.55 197.57 Z" fill="#ffcbd5" fill-rule="evenodd" group-id="2" node-id="280" stroke="none" target-height="93.66997" target-width="69.054504" target-x="22.044151" target-y="175.78703"></path><path d="M 43.10 211.96 C 42.85 210.86 43.21 208.41 43.73 206.92 C 46.77 198.19 57.97 191.05 64.65 190.98 C 58.93 193.19 49.60 198.36 43.10 211.96 Z" fill="#ff8d9d" fill-rule="evenodd" group-id="2" node-id="282" stroke="none" target-height="20.973007" target-width="21.631588" target-x="43.020412" target-y="190.982"></path><path d="M 80.32 206.93 C 72.50 213.20 68.81 220.16 66.76 227.39 C 63.64 220.31 73.03 207.56 80.32 206.93 Z" fill="#ff8d9d" fill-rule="evenodd" group-id="2" node-id="284" stroke="none" target-height="20.462006" target-width="14.160187" target-x="66.16181" target-y="206.931"></path><path d="M 198.92 197.76 C 187.08 204.03 116.05 315.95 113.02 318.78 C 106.84 296.14 96.07 252.86 96.07 252.86 C 86.56 256.69 53.30 262.37 51.77 262.66 C 54.92 283.76 64.94 355.52 73.40 377.86 C 76.13 385.06 80.02 393.29 85.22 397.25 C 93.29 403.40 102.11 399.33 108.72 396.61 C 132.15 386.98 185.38 352.43 214.76 279.21 C 206.57 261.64 207.66 215.08 198.92 197.76 Z" fill="#bad6e9" fill-rule="evenodd" group-id="2" node-id="286" stroke="none" target-height="202.70702" target-width="162.987" target-x="51.772" target-y="197.761"></path><g node-id="476"><path d="M 198.92 197.76 C 187.08 204.03 116.05 315.95 113.02 318.78 C 106.84 296.14 96.07 252.86 96.07 252.86 C 86.56 256.69 53.30 262.37 51.77 262.66 C 54.92 283.76 64.94 355.52 73.40 377.86 C 76.13 385.06 80.02 393.29 85.22 397.25 C 93.29 403.40 102.11 399.33 108.72 396.61 C 132.15 386.98 185.38 352.43 214.76 279.21 C 206.57 261.64 207.66 215.08 198.92 197.76 Z" fill="#ffffff" fill-opacity="0.41" fill-rule="evenodd" group-id="2,3" node-id="290" stroke-linecap="butt" stroke-opacity="0.41" stroke-width="1" target-height="202.70702" target-width="162.987" target-x="51.772" target-y="197.761"></path></g><g node-id="477"><path d="M 123.18 339.14 C 125.14 338.58 124.47 333.16 124.44 330.15 C 124.36 322.71 123.02 313.43 121.41 306.58 C 117.09 313.07 114.12 317.47 113.21 318.57 C 114.78 323.42 116.59 328.19 118.50 332.85 C 119.43 335.12 121.04 339.75 123.18 339.14 Z" fill="#1a4e72" fill-opacity="0.25" fill-rule="nonzero" group-id="2,4" node-id="295" stroke-linecap="butt" stroke-opacity="0.25" stroke-width="1" target-height="32.565002" target-width="11.349335" target-x="113.213" target-y="306.577"></path></g><path d="M 32.43 247.39 L 43.03 253.34 C 43.56 253.64 44.24 253.45 44.53 252.92 C 44.84 252.38 44.64 251.71 44.11 251.41 L 41.57 249.98 C 41.68 249.86 41.77 249.74 41.85 249.60 L 48.08 238.50 C 48.64 237.52 48.31 236.29 47.35 235.75 L 45.01 234.43 C 44.06 233.89 42.83 234.25 42.28 235.23 L 36.04 246.34 C 35.96 246.48 35.91 246.62 35.87 246.77 L 33.53 245.45 C 32.99 245.15 32.31 245.35 32.01 245.88 C 31.71 246.41 31.90 247.09 32.43 247.39" fill="#1a4e72" fill-rule="nonzero" group-id="2" node-id="298" stroke="none" target-height="19.28624" target-width="16.463253" target-x="31.875484" target-y="234.18918"></path><path d="M 36.39 231.73 L 45.42 236.80 L 54.45 241.88 C 56.09 242.80 57.71 241.30 56.85 239.63 C 53.37 232.88 51.91 230.99 49.46 229.61 C 47.01 228.24 44.64 227.98 37.06 228.51 C 35.18 228.64 34.75 230.81 36.39 231.73" fill="#1a4e72" fill-rule="nonzero" group-id="2" node-id="300" stroke="none" target-height="13.893402" target-width="21.681686" target-x="35.405594" target-y="228.25722"></path><path d="M 80.85 163.97 C 81.39 163.02 82.60 162.68 83.55 163.21 L 88.23 165.84 C 89.19 166.38 89.53 167.59 88.99 168.55 L 85.02 175.62 C 84.48 176.58 83.27 176.92 82.31 176.38 L 77.63 173.75 C 76.67 173.21 76.33 172.00 76.87 171.05 L 80.85 163.97 Z" fill="#1a4e72" fill-rule="nonzero" group-id="2" node-id="302" stroke="none" target-height="13.655563" target-width="12.609467" target-x="76.62595" target-y="162.96948"></path><path d="M 86.99 158.98 C 87.37 158.61 87.97 158.51 88.46 158.78 L 89.66 159.46 C 90.17 159.75 90.40 160.33 90.25 160.87 C 90.23 160.97 88.51 166.07 88.51 166.07 C 88.18 166.67 87.41 166.89 86.82 166.55 L 83.89 164.90 C 83.29 164.56 83.07 163.81 83.41 163.21 C 83.41 163.21 86.90 159.06 86.99 158.98" fill="#1a4e72" fill-rule="nonzero" group-id="2" node-id="304" stroke="none" target-height="8.063126" target-width="6.99234" target-x="83.26066" target-y="158.64037"></path><path d="M 88.44 159.20 L 89.34 159.69 L 100.82 138.56 L 100.82 138.56 C 100.86 138.47 100.83 138.38 100.75 138.33 C 100.67 138.28 100.58 138.32 100.52 138.38 L 100.52 138.38 L 88.44 159.20 Z" fill="#1a4e72" fill-rule="nonzero" group-id="2" node-id="306" stroke="none" target-height="21.362015" target-width="12.389" target-x="88.435" target-y="138.333"></path><path d="M 88.12 158.60 C 88.24 158.39 88.51 158.31 88.72 158.43 L 89.83 159.06 C 90.05 159.18 90.12 159.44 90.00 159.65 C 89.89 159.87 89.62 159.94 89.41 159.82 L 88.29 159.20 C 88.08 159.07 88.00 158.81 88.12 158.60" fill="#1a4e72" fill-rule="nonzero" group-id="2" node-id="308" stroke="none" target-height="1.4707642" target-width="1.9619217" target-x="88.08118" target-y="158.39105"></path><path d="M 74.97 176.40 L 76.58 173.53 L 83.26 177.28 L 81.65 180.15 Z" fill="#1a4e72" fill-rule="nonzero" group-id="2" node-id="310" stroke-linecap="butt" stroke-width="1.0000079" target-height="6.6214905" target-width="8.292084" target-x="74.967316" target-y="173.52837"></path><path d="M 73.89 171.34 C 74.19 170.81 74.87 170.62 75.40 170.92 L 85.99 176.87 C 86.52 177.17 86.72 177.85 86.42 178.39 C 86.11 178.91 85.44 179.11 84.90 178.81 L 74.31 172.86 C 73.78 172.56 73.59 171.88 73.89 171.34" fill="#1a4e72" fill-rule="nonzero" group-id="2" node-id="312" stroke="none" target-height="8.155762" target-width="12.795662" target-x="73.75576" target-y="170.7873"></path><path d="M 75.98 196.84 L 54.53 235.31 L 42.48 228.26 L 63.77 190.06 L 73.75 185.47 Z" fill="#bad6e9" fill-rule="nonzero" group-id="2" node-id="314" stroke="none" target-height="49.839996" target-width="33.492996" target-x="42.484" target-y="185.468"></path><path d="M 76.00 196.86 L 78.04 193.18 L 77.74 192.27 L 78.67 192.04 L 81.43 187.07 L 81.16 186.22 L 82.06 185.94 L 83.76 182.87 C 84.38 181.76 83.99 180.34 82.87 179.70 L 74.75 175.15 C 73.64 174.52 72.21 174.92 71.59 176.05 L 63.78 190.07 L 76.00 196.86 Z" fill="#e34e6a" fill-rule="nonzero" group-id="2" node-id="316" stroke="none" target-height="22.001038" target-width="20.265198" target-x="63.776" target-y="174.86296"></path><path d="M 77.07 183.89 C 76.90 184.20 77.01 184.59 77.32 184.77 L 81.43 187.07 L 82.06 185.94 L 77.95 183.64 C 77.65 183.47 77.24 183.57 77.07 183.89 Z" fill="#1a4e72" fill-rule="nonzero" group-id="2" node-id="318" stroke="none" target-height="3.4943237" target-width="5.0469666" target-x="77.01503" target-y="183.58067"></path><path d="M 73.66 189.97 C 73.47 190.28 73.59 190.67 73.90 190.85 L 78.04 193.18 L 78.68 192.03 L 74.54 189.72 C 74.21 189.55 73.83 189.66 73.66 189.97 Z" fill="#1a4e72" fill-rule="nonzero" group-id="2" node-id="320" stroke="none" target-height="3.5183105" target-width="5.0825424" target-x="73.59346" target-y="189.6637"></path><path d="M 70.24 196.05 C 70.06 196.36 70.17 196.76 70.48 196.93 L 74.63 199.26 L 75.26 198.12 L 71.12 195.80 C 70.81 195.63 70.41 195.74 70.24 196.05 Z" fill="#1a4e72" fill-rule="nonzero" group-id="2" node-id="322" stroke="none" target-height="3.5152435" target-width="5.0791473" target-x="70.17685" target-y="195.74576"></path><path d="M 66.82 202.13 C 66.65 202.45 66.75 202.84 67.06 203.02 L 71.23 205.36 L 71.86 204.22 L 67.71 201.89 C 67.39 201.70 66.99 201.82 66.82 202.13 Z" fill="#1a4e72" fill-rule="nonzero" group-id="2" node-id="324" stroke="none" target-height="3.5334473" target-width="5.0996857" target-x="66.760315" target-y="201.82355"></path><path d="M 63.40 208.22 C 63.22 208.53 63.33 208.92 63.65 209.10 L 67.83 211.46 L 68.46 210.32 L 64.28 207.97 C 63.97 207.80 63.57 207.91 63.40 208.22 Z" fill="#1a4e72" fill-rule="nonzero" group-id="2" node-id="326" stroke="none" target-height="3.5419006" target-width="5.120491" target-x="63.339508" target-y="207.9131"></path><path d="M 59.98 214.30 C 59.81 214.61 59.91 215.01 60.23 215.18 L 64.43 217.55 L 65.06 216.42 L 60.87 214.06 C 60.55 213.88 60.16 213.99 59.98 214.30 Z" fill="#1a4e72" fill-rule="nonzero" group-id="2" node-id="328" stroke="none" target-height="3.5522766" target-width="5.1396255" target-x="59.92137" target-y="213.99472"></path><path d="M 56.57 220.39 C 56.39 220.69 56.49 221.09 56.81 221.27 L 61.04 223.64 L 61.67 222.51 L 57.45 220.14 C 57.14 219.97 56.74 220.07 56.57 220.39 Z" fill="#1a4e72" fill-rule="nonzero" group-id="2" node-id="330" stroke="none" target-height="3.563324" target-width="5.16288" target-x="56.50412" target-y="220.07867"></path><path d="M 46.94 228.82 C 43.71 229.05 47.02 221.83 49.27 222.71 C 51.90 223.74 48.83 227.97 47.24 228.78 C 47.14 228.82 47.05 228.81 46.94 228.82 Z" fill="#ffffff" fill-rule="evenodd" group-id="2" node-id="332" stroke="none" target-height="6.1119995" target-width="4.64135" target-x="45.622547" target-y="222.709"></path><path d="M 51.60 222.06 C 48.98 221.88 51.43 215.65 53.72 217.10 C 55.46 218.20 53.41 222.18 51.60 222.06 Z" fill="#ffffff" fill-rule="evenodd" group-id="2" node-id="334" stroke="none" target-height="5.171463" target-width="3.8404198" target-x="50.504498" target-y="216.88654"></path><path d="M 71.70 183.17 C 69.08 182.99 71.54 176.75 73.82 178.21 C 75.56 179.31 73.51 183.28 71.70 183.17 Z" fill="#ffffff" fill-rule="evenodd" group-id="2" node-id="336" stroke="none" target-height="5.1735992" target-width="3.8375244" target-x="70.607025" target-y="177.99341"></path><path d="M 171.66 252.83 C 175.01 250.96 178.20 245.33 181.00 239.61 C 182.20 237.16 184.07 233.17 182.01 231.84 C 179.53 230.26 176.67 234.46 175.66 235.96 C 172.45 240.73 169.54 247.14 168.99 251.00 C 169.25 251.87 170.61 252.73 171.66 252.83 Z" fill="#ffffff" fill-rule="evenodd" group-id="2" node-id="338" stroke="none" target-height="21.298767" target-width="13.940628" target-x="168.99" target-y="231.52924"></path><path d="M 186.37 242.66 C 190.86 246.91 198.39 235.67 193.83 233.30 C 191.85 232.28 186.18 236.35 185.32 239.59 C 185.03 240.75 185.59 241.91 186.37 242.66 Z" fill="#ffffff" fill-rule="evenodd" group-id="2" node-id="340" stroke="none" target-height="10.44812" target-width="9.980118" target-x="185.25227" target-y="233.15076"></path><path d="M 87.25 356.33 C 81.35 359.04 81.81 342.24 87.46 345.21 C 90.41 346.76 88.78 353.58 87.25 356.33 Z" fill="#ffffff" fill-rule="evenodd" group-id="2" node-id="342" stroke="none" target-height="11.739105" target-width="6.034477" target-x="83.02337" target-y="344.87723"></path><path d="M 80.79 365.62 C 81.34 364.36 83.15 362.09 85.59 363.39 C 88.78 365.08 89.07 372.32 89.73 375.17 C 90.54 378.63 93.61 384.79 90.66 387.50 C 86.46 391.38 83.37 381.51 82.44 378.07 C 81.95 376.24 81.65 374.40 81.31 372.84 C 80.74 370.15 79.72 368.04 80.79 365.62 Z" fill="#ffffff" fill-rule="evenodd" group-id="2" node-id="344" stroke="none" target-height="25.391388" target-width="11.568008" target-x="80.33963" target-y="363.008"></path><path d="M 350.55 512.00 L 287.87 512.00 L 287.87 159.82 L 338.79 148.45 Z" fill="#1a4e72" fill-rule="evenodd" group-id="2" node-id="346" stroke="none" target-height="363.551" target-width="62.682983" target-x="287.868" target-y="148.449"></path><path d="M 427.77 439.56 C 422.71 401.51 412.66 365.39 412.66 322.04 C 412.66 286.77 422.45 257.41 426.43 225.00 C 427.75 214.19 430.41 199.93 425.75 191.09 C 422.80 185.47 415.21 181.08 408.30 177.66 C 386.62 166.94 364.19 159.46 338.79 153.15 C 338.51 153.09 338.48 153.28 338.46 153.49 C 336.33 184.21 335.19 214.52 332.75 244.48 C 330.32 274.23 327.45 303.64 325.02 333.45 C 322.63 362.90 319.84 393.79 320.32 425.46 C 320.76 453.97 320.79 483.04 319.92 512.00 L 434.34 512.00 C 432.95 487.08 430.93 463.29 427.77 439.56 Z" fill="#bad6e9" fill-rule="nonzero" group-id="2" node-id="348" stroke="none" target-height="358.851" target-width="114.415985" target-x="319.923" target-y="153.149"></path><path d="M 338.79 148.45 C 337.19 148.80 337.57 151.12 337.45 152.14 C 336.28 162.36 335.94 173.51 335.10 184.38 C 332.51 217.80 329.94 257.27 327.04 290.54 C 326.83 292.93 325.57 296.19 327.71 298.26 C 331.48 298.24 333.17 294.27 334.76 291.55 C 339.78 282.98 345.92 268.71 350.50 258.86 C 353.19 253.09 353.51 245.70 356.59 238.77 C 359.11 233.10 364.34 224.46 363.64 218.28 C 363.28 215.11 360.65 212.02 358.94 209.22 C 357.16 206.31 355.01 203.79 354.24 200.49 C 358.19 198.87 366.42 202.22 369.01 197.80 C 370.35 195.53 368.31 190.25 367.33 186.72 C 365.33 179.52 363.52 171.51 361.29 164.56 C 360.06 160.76 358.73 155.66 355.92 153.49 C 352.12 150.55 343.78 149.34 338.79 148.45 Z" fill="#bad6e9" fill-rule="evenodd" group-id="2" node-id="350" stroke="none" target-height="149.81299" target-width="42.91324" target-x="326.4957" target-y="148.449"></path><path d="M 338.79 148.45 C 337.19 148.80 337.57 151.12 337.45 152.14 C 336.28 162.36 335.94 173.51 335.10 184.38 C 332.51 217.80 329.94 257.27 327.04 290.54 C 326.83 292.93 325.57 296.19 327.71 298.26 C 331.48 298.24 333.17 294.27 334.76 291.55 C 339.78 282.98 345.92 268.71 350.50 258.86 C 353.19 253.09 353.51 245.70 356.59 238.77 C 359.11 233.10 364.34 224.46 363.64 218.28 C 363.28 215.11 360.65 212.02 358.94 209.22 C 357.16 206.31 355.01 203.79 354.24 200.49 C 358.19 198.87 366.42 202.22 369.01 197.80 C 370.35 195.53 368.31 190.25 367.33 186.72 C 365.33 179.52 363.52 171.51 361.29 164.56 C 360.06 160.76 358.73 155.66 355.92 153.49 C 352.12 150.55 343.78 149.34 338.79 148.45 Z" fill="#ffffff" fill-opacity="0.41" fill-rule="evenodd" group-id="2,5" node-id="354" stroke-linecap="butt" stroke-opacity="0.41" stroke-width="1" target-height="149.81299" target-width="42.91324" target-x="326.4957" target-y="148.449"></path><path d="M 399.56 422.11 C 380.38 422.23 361.46 422.61 344.95 425.41 C 346.73 439.79 345.24 454.81 351.18 466.09 C 355.05 473.44 363.93 479.44 371.34 484.78 C 374.06 486.74 377.27 489.06 380.14 488.81 C 383.79 488.49 389.11 480.67 391.13 477.81 C 394.67 472.83 396.76 468.54 398.46 463.52 C 402.48 451.64 400.05 436.34 399.93 423.21 C 399.96 422.69 399.99 422.17 399.56 422.11 Z" fill="#bad6e9" fill-rule="evenodd" group-id="2" node-id="357" stroke="none" target-height="66.701996" target-width="55.79599" target-x="344.953" target-y="422.111"></path><path d="M 399.56 422.11 C 380.38 422.23 361.46 422.61 344.95 425.41 C 346.73 439.79 345.24 454.81 351.18 466.09 C 355.05 473.44 363.93 479.44 371.34 484.78 C 374.06 486.74 377.27 489.06 380.14 488.81 C 383.79 488.49 389.11 480.67 391.13 477.81 C 394.67 472.83 396.76 468.54 398.46 463.52 C 402.48 451.64 400.05 436.34 399.93 423.21 C 399.96 422.69 399.99 422.17 399.56 422.11 Z" fill="#1a4e72" fill-opacity="0.25" fill-rule="evenodd" group-id="2,6" node-id="361" stroke-linecap="butt" stroke-opacity="0.25" stroke-width="1" target-height="66.701996" target-width="55.79599" target-x="344.953" target-y="422.111"></path><path d="M 304.35 432.13 C 304.83 400.47 302.04 369.57 299.65 340.13 C 297.23 310.31 294.36 280.90 291.93 251.15 C 289.48 221.20 288.35 190.88 286.22 160.16 C 286.20 159.95 286.17 159.76 285.88 159.82 C 260.48 166.13 238.05 173.62 216.38 184.33 C 209.47 187.75 201.88 192.14 198.92 197.76 C 194.26 206.60 196.92 220.85 198.25 231.68 C 202.22 264.08 212.01 293.44 212.01 328.71 C 212.01 372.07 201.96 408.19 196.90 446.23 C 194.03 467.84 192.10 489.50 190.73 512.00 L 304.57 512.00 C 303.89 485.25 303.95 458.45 304.35 432.13 Z" fill="#bad6e9" fill-rule="nonzero" group-id="2" node-id="364" stroke="none" target-height="352.18103" target-width="113.83598" target-x="190.731" target-y="159.821"></path><path d="M 285.88 155.12 C 287.48 155.47 287.11 157.79 287.23 158.81 C 288.39 169.03 288.74 180.19 289.58 191.05 C 292.17 224.48 294.73 258.17 297.63 291.44 C 297.84 293.83 299.10 297.09 296.96 299.16 C 293.19 299.14 291.51 295.17 289.91 292.45 C 284.90 283.88 281.06 274.43 276.48 264.58 C 273.79 258.81 271.17 252.37 268.09 245.44 C 265.56 239.76 260.33 231.13 261.04 224.96 C 261.40 221.78 264.03 218.69 265.74 215.89 C 267.51 212.98 269.67 210.46 270.44 207.16 C 266.49 205.54 258.26 208.89 255.66 204.47 C 254.33 202.20 256.36 196.93 257.34 193.39 C 259.34 186.19 261.15 178.19 263.39 171.23 C 264.61 167.43 265.94 162.33 268.76 160.15 C 272.56 157.22 280.89 156.01 285.88 155.12 Z" fill="#bad6e9" fill-rule="evenodd" group-id="2" node-id="366" stroke="none" target-height="144.046" target-width="42.91455" target-x="255.26474" target-y="155.118"></path><path d="M 285.88 155.12 C 287.48 155.47 287.11 157.79 287.23 158.81 C 288.39 169.03 288.74 180.19 289.58 191.05 C 292.17 224.48 294.73 258.17 297.63 291.44 C 297.84 293.83 299.10 297.09 296.96 299.16 C 293.19 299.14 291.51 295.17 289.91 292.45 C 284.90 283.88 281.06 274.43 276.48 264.58 C 273.79 258.81 271.17 252.37 268.09 245.44 C 265.56 239.76 260.33 231.13 261.04 224.96 C 261.40 221.78 264.03 218.69 265.74 215.89 C 267.51 212.98 269.67 210.46 270.44 207.16 C 266.49 205.54 258.26 208.89 255.66 204.47 C 254.33 202.20 256.36 196.93 257.34 193.39 C 259.34 186.19 261.15 178.19 263.39 171.23 C 264.61 167.43 265.94 162.33 268.76 160.15 C 272.56 157.22 280.89 156.01 285.88 155.12 Z" fill="#ffffff" fill-opacity="0.41" fill-rule="evenodd" group-id="2,7" node-id="370" stroke-linecap="butt" stroke-opacity="0.41" stroke-width="1" target-height="144.046" target-width="42.91455" target-x="255.26474" target-y="155.118"></path><path d="M 237.88 458.07 C 237.90 460.78 240.15 469.60 242.85 469.58 C 245.55 469.56 247.68 460.70 247.67 458.01 C 247.65 455.31 245.44 453.13 242.74 453.14 C 240.04 453.16 237.87 455.38 237.88 458.07" fill="#e34e6a" fill-rule="nonzero" group-id="2" node-id="373" stroke="none" target-height="16.431976" target-width="9.786011" target-x="237.881" target-y="453.144"></path><path d="M 242.87 473.83 L 242.90 473.83 C 243.77 473.82 244.46 473.11 244.45 472.25 L 244.43 468.52 L 241.27 468.55 L 241.29 472.27 C 241.30 473.14 242.00 473.83 242.87 473.83" fill="#1a4e72" fill-rule="nonzero" group-id="2" node-id="375" stroke="none" target-height="5.300995" target-width="3.1839905" target-x="241.27" target-y="468.525"></path><path d="M 241.55 381.15 C 242.86 381.12 243.90 380.06 243.89 378.75 L 243.83 374.10 C 243.82 372.79 242.75 371.74 241.44 371.76 C 240.14 371.77 239.09 372.84 239.11 374.15 L 239.16 378.81 C 239.18 380.11 240.25 381.16 241.55 381.15" fill="#e34e6a" fill-rule="nonzero" group-id="2" node-id="377" stroke="none" target-height="9.384003" target-width="4.7839966" target-x="239.108" target-y="371.762"></path><path d="M 237.00 376.99 L 246.68 377.06 L 246.97 403.32 L 237.19 403.39 Z" fill="#1a4e72" fill-rule="nonzero" group-id="2" node-id="379" stroke="none" target-height="26.402985" target-width="9.973007" target-x="237" target-y="376.988"></path><path d="M 237.21 406.24 L 247.00 406.17 L 247.67 458.00 L 237.88 458.07 Z" fill="#1a4e72" fill-rule="nonzero" group-id="2" node-id="381" stroke="none" target-height="51.902985" target-width="10.461014" target-x="237.206" target-y="406.169"></path><path d="M 237.18 403.41 L 246.96 403.34 L 246.98 406.19 L 237.20 406.26 Z" fill="#e34e6a" fill-rule="nonzero" group-id="2" node-id="383" stroke-linecap="butt" stroke-width="1.0000252" target-height="2.917511" target-width="9.80722" target-x="237.17673" target-y="403.34198"></path><path d="M 233.61 376.71 L 246.78 376.61 L 246.79 378.04 L 233.62 378.13 Z" fill="#e34e6a" fill-rule="nonzero" group-id="2" node-id="385" stroke-linecap="butt" stroke-width="1.0000266" target-height="1.5211487" target-width="13.182404" target-x="233.60559" target-y="376.61346"></path><path d="M 233.57 376.72 L 235.61 376.70 L 235.88 404.91 L 233.84 404.93 Z" fill="#e34e6a" fill-rule="nonzero" group-id="2" node-id="387" stroke-linecap="butt" stroke-width="1.0000441" target-height="28.233124" target-width="2.302185" target-x="233.57413" target-y="376.69937"></path><path d="M 240.52 381.50 C 238.50 380.13 237.91 386.09 239.71 386.38 C 241.82 386.70 241.43 382.78 240.70 381.65 C 240.66 381.58 240.59 381.55 240.52 381.50 Z" fill="#ffffff" fill-rule="evenodd" group-id="2" node-id="389" stroke="none" target-height="5.0672913" target-width="2.6195679" target-x="238.64789" target-y="381.3077"></path><path d="M 240.85 388.73 C 239.08 387.85 238.31 392.84 240.35 392.76 C 241.90 392.70 242.07 389.33 240.85 388.73 Z" fill="#ffffff" fill-rule="evenodd" group-id="2" node-id="391" stroke="none" target-height="4.1132507" target-width="2.4689026" target-x="239.17004" target-y="388.64874"></path><path d="M 246.90 458.01 C 247.06 456.63 247.02 454.43 246.02 454.26 C 244.72 454.05 244.80 455.53 244.76 456.66 C 244.72 457.78 244.71 459.17 245.75 459.27 C 246.90 459.38 246.83 458.55 246.90 458.01 Z" fill="#ffffff" fill-rule="evenodd" group-id="2" node-id="393" stroke="none" target-height="5.0069885" target-width="2.1351318" target-x="244.762" target-y="454.265"></path><path d="M 244.58 451.24 C 244.78 450.23 244.51 449.18 243.61 449.14 C 242.08 449.08 241.92 452.53 243.44 452.51 C 244.01 452.50 244.41 452.08 244.58 451.24 Z" fill="#ffffff" fill-rule="evenodd" group-id="2" node-id="395" stroke="none" target-height="3.3670044" target-width="2.2570343" target-x="242.37978" target-y="449.139"></path><path d="M 220.95 422.11 C 240.13 422.23 259.05 422.61 275.56 425.41 C 273.78 439.79 275.26 454.81 269.32 466.09 C 265.46 473.44 256.57 479.44 249.17 484.78 C 246.44 486.74 243.24 489.06 240.37 488.81 C 236.72 488.49 231.40 480.67 229.38 477.81 C 225.84 472.83 223.75 468.54 222.05 463.52 C 218.02 451.64 220.46 436.34 220.58 423.21 C 220.55 422.69 220.52 422.17 220.95 422.11 Z" fill="#bad6e9" fill-rule="evenodd" group-id="2" node-id="397" stroke="none" target-height="66.701996" target-width="55.795303" target-x="219.75969" target-y="422.111"></path><path d="M 220.95 422.11 C 240.13 422.23 259.05 422.61 275.56 425.41 C 273.78 439.79 275.26 454.81 269.32 466.09 C 265.46 473.44 256.57 479.44 249.17 484.78 C 246.44 486.74 243.24 489.06 240.37 488.81 C 236.72 488.49 231.40 480.67 229.38 477.81 C 225.84 472.83 223.75 468.54 222.05 463.52 C 218.02 451.64 220.46 436.34 220.58 423.21 C 220.55 422.69 220.52 422.17 220.95 422.11 Z" fill="#1a4e72" fill-opacity="0.25" fill-rule="evenodd" group-id="2,8" node-id="401" stroke-linecap="butt" stroke-opacity="0.25" stroke-width="1" target-height="66.701996" target-width="55.795303" target-x="219.75969" target-y="422.111"></path><path d="M 272.05 328.46 C 269.04 329.54 258.27 331.24 253.67 333.79 C 251.88 334.77 250.06 336.46 250.57 338.21 C 251.64 341.88 260.01 339.75 263.02 339.43 C 268.24 338.84 271.92 338.77 276.36 338.14 C 273.07 339.85 262.62 341.44 256.81 344.27 C 254.38 345.45 251.81 347.26 252.55 349.48 C 253.50 352.29 260.57 351.33 262.96 351.08 C 274.45 349.90 287.28 348.67 296.57 349.57 C 307.25 350.61 316.35 352.96 325.96 357.26 C 328.28 358.31 332.82 361.51 335.24 360.74 C 336.38 360.38 338.32 357.89 338.89 356.85 C 340.87 353.27 341.88 348.43 343.39 342.46 C 343.98 340.18 344.65 337.94 344.98 334.96 C 345.26 332.55 346.18 328.50 345.82 327.38 C 345.29 325.62 341.60 323.19 339.38 321.76 C 332.95 317.62 323.47 312.55 318.06 309.28 C 313.35 306.45 308.43 303.47 303.96 300.68 C 299.73 298.02 285.88 289.24 281.82 294.27 C 278.48 298.41 292.91 305.31 295.59 308.49 C 288.53 307.21 276.82 306.97 265.08 309.57 C 262.01 310.27 255.47 311.38 255.52 314.20 C 255.59 318.06 260.84 317.36 263.29 317.51 C 266.69 317.73 269.19 318.22 272.15 317.88 C 268.09 319.57 258.37 320.86 253.88 323.53 C 252.41 324.40 250.97 326.01 251.31 327.40 C 252.10 330.57 257.16 329.26 260.63 329.04 C 265.38 328.73 268.47 328.86 271.74 328.57 C 271.83 328.54 271.94 328.50 272.05 328.46 Z" fill="#ffcbd5" fill-rule="evenodd" group-id="2" node-id="404" stroke="none" target-height="68.07721" target-width="95.3338" target-x="250.57" target-y="292.75195"></path><path d="M 373.81 217.99 C 378.56 230.52 406.93 347.74 408.27 349.51 C 386.86 339.89 330.72 309.98 330.72 309.98 C 327.63 319.76 311.05 359.91 310.30 361.28 C 328.59 372.26 410.47 421.69 433.10 429.36 C 440.39 431.83 449.21 434.05 455.58 432.56 C 465.46 430.24 467.92 420.84 470.02 414.01 C 477.47 389.79 473.63 275.37 427.48 194.13 C 403.21 151.43 358.13 176.63 373.81 217.99 Z" fill="#bad6e9" fill-rule="evenodd" group-id="2" node-id="406" stroke="none" target-height="261.00555" target-width="162.6427" target-x="310.296" target-y="172.0032"></path><path d="M 373.81 217.99 C 378.56 230.52 406.93 347.74 408.27 349.51 C 386.86 339.89 330.72 309.98 330.72 309.98 C 327.63 319.76 311.05 359.91 310.30 361.28 C 328.59 372.26 410.47 421.69 433.10 429.36 C 440.39 431.83 449.21 434.05 455.58 432.56 C 465.46 430.24 467.92 420.84 470.02 414.01 C 477.47 389.79 473.63 275.37 427.48 194.13 C 403.21 151.43 358.13 176.63 373.81 217.99 Z" fill="#ffffff" fill-opacity="0.41" fill-rule="evenodd" group-id="2,9" node-id="410" stroke-linecap="butt" stroke-opacity="0.41" stroke-width="1" target-height="261.00555" target-width="162.6427" target-x="310.296" target-y="172.0032"></path><path d="M 432.84 355.83 C 432.34 357.80 427.36 356.17 425.01 355.44 C 419.37 353.71 413.68 351.77 408.17 349.47 C 408.18 349.48 408.20 349.48 408.22 349.48 C 408.17 349.47 404.75 336.84 404.75 336.84 C 411.16 339.93 420.72 344.33 426.71 349.15 C 429.05 351.03 433.22 354.36 432.84 355.83 Z" fill="#1a4e72" fill-opacity="0.25" fill-rule="nonzero" group-id="2,10" node-id="415" stroke-linecap="butt" stroke-opacity="0.25" stroke-width="1" target-height="19.929047" target-width="28.089996" target-x="404.751" target-y="336.836"></path><path d="M 420.71 205.54 C 426.56 205.35 419.44 191.98 416.07 196.65 C 414.32 199.09 418.37 203.93 420.71 205.54 Z" fill="#ffffff" fill-rule="evenodd" group-id="2" node-id="418" stroke="none" target-height="9.883209" target-width="7.26886" target-x="415.66333" target-y="195.65579"></path><path d="M 429.66 210.44 C 428.71 209.65 426.33 208.54 424.89 210.56 C 423.00 213.21 425.67 219.18 426.28 221.74 C 427.02 224.85 427.02 231.06 430.49 232.07 C 435.43 233.51 433.96 224.30 433.33 221.15 C 432.99 219.48 432.49 217.88 432.14 216.48 C 431.52 214.08 431.49 211.97 429.66 210.44 Z" fill="#ffffff" fill-rule="evenodd" group-id="2" node-id="420" stroke="none" target-height="22.759888" target-width="9.78833" target-x="424.22476" target-y="209.44559"></path><path d="M 408.34 402.69 C 411.66 402.76 416.37 405.79 420.81 409.05 C 422.72 410.43 425.76 412.74 424.71 414.58 C 423.45 416.79 419.58 414.73 418.19 413.98 C 413.81 411.63 409.01 407.89 407.03 405.16 C 406.89 404.39 407.58 403.17 408.34 402.69 Z" fill="#ffffff" fill-rule="evenodd" group-id="2" node-id="422" stroke="none" target-height="12.881653" target-width="17.889343" target-x="407.031" target-y="402.691"></path><path d="M 433.19 407.51 C 434.91 402.45 445.20 408.02 442.67 411.67 C 441.57 413.25 435.58 412.41 433.63 410.28 C 432.93 409.51 432.89 408.39 433.19 407.51 Z" fill="#ffffff" fill-rule="evenodd" group-id="2" node-id="424" stroke="none" target-height="6.9737244" target-width="10.00119" target-x="433.03372" target-y="405.51187"></path><path d="M 442.14 418.50 C 442.56 416.65 445.27 416.18 447.97 416.73 C 450.14 417.17 454.08 419.02 452.81 421.21 C 452.25 422.20 450.13 422.86 447.87 422.46 C 445.23 422.00 441.60 420.89 442.14 418.50 Z" fill="#ffffff" fill-rule="evenodd" group-id="2" node-id="426" stroke="none" target-height="6.061035" target-width="10.907532" target-x="442.137" target-y="416.5108"></path><path d="M 375.34 224.43 C 400.01 228.90 392.16 266.42 392.04 292.90 C 393.19 294.61 396.39 293.65 396.21 296.56 C 395.98 300.26 385.29 299.43 382.41 297.37 C 381.86 294.04 384.61 294.57 385.36 292.77 C 384.98 275.29 389.61 247.46 382.67 235.38 C 380.18 231.04 374.38 228.49 368.16 230.93 C 352.66 237.03 354.75 266.93 351.60 287.59 C 352.82 289.60 356.11 287.42 356.20 290.55 C 356.28 293.60 345.00 294.35 344.67 290.79 C 344.48 288.75 346.33 288.37 349.35 287.80 C 349.33 263.78 348.96 231.16 368.58 225.40 C 369.00 204.76 366.03 187.68 356.01 175.80 C 338.50 155.00 290.61 148.78 267.35 164.97 C 259.69 170.30 254.54 177.77 251.21 186.76 C 247.65 196.41 247.40 207.57 246.42 220.56 C 244.47 246.13 245.34 240.07 241.60 263.63 C 244.27 266.94 247.86 269.23 245.92 275.09 C 244.55 279.24 238.61 282.45 233.92 281.61 C 228.48 280.62 225.60 273.93 227.86 268.52 C 229.17 265.38 232.47 264.40 235.35 262.78 C 237.74 230.29 235.69 238.61 237.74 207.64 C 238.99 188.98 244.82 171.11 254.57 162.14 C 266.21 151.43 283.73 148.58 306.07 148.98 C 322.26 149.27 338.31 152.96 348.70 159.65 C 358.71 166.09 367.09 175.71 370.73 187.32 C 374.00 197.72 374.48 211.08 375.34 224.43 Z" fill="#1a4e72" fill-rule="evenodd" group-id="2" node-id="428" stroke="none" target-height="150.15941" target-width="169.12985" target-x="227.08215" target-y="148.96782"></path><path d="M 250.10 274.52 C 249.51 282.17 242.84 287.90 235.20 287.32 C 227.55 286.73 221.83 280.07 222.41 272.42 C 222.99 264.77 229.66 259.05 237.30 259.63 C 244.95 260.21 250.68 266.88 250.10 274.52 Z" fill="#1a4e72" fill-rule="evenodd" group-id="2" node-id="430" stroke="none" target-height="27.684998" target-width="27.688995" target-x="222.407" target-y="259.631"></path><path d="M 236.48 266.02 C 241.92 265.70 246.04 270.90 243.30 276.93 C 240.43 283.25 229.72 281.50 228.59 276.35 C 227.10 269.62 232.02 266.28 236.48 266.02 Z" fill="#ffffff" fill-rule="evenodd" group-id="2" node-id="432" stroke="none" target-height="14.915619" target-width="15.852722" target-x="228.32784" target-y="266.023"></path><path d="M 329.64 101.42 C 329.64 101.42 338.29 92.31 341.31 76.27 C 339.00 58.86 340.57 28.54 327.60 20.38 C 308.52 8.38 278.92 13.43 265.23 26.35 C 253.47 37.46 242.29 62.65 240.67 88.05 C 239.03 113.75 248.45 135.50 279.37 127.14 C 281.41 137.47 284.54 154.53 285.43 158.25 C 287.99 169.18 298.27 186.09 339.30 150.57 C 339.24 151.78 329.62 107.92 329.64 101.42 Z" fill="#ffcbd5" fill-rule="nonzero" group-id="2" node-id="434" stroke="none" target-height="158.4271" target-width="100.82205" target-x="240.48996" target-y="13.575585"></path><path d="M 279.37 127.14 C 288.91 125.13 300.47 113.93 300.47 113.93 C 300.47 113.93 300.19 133.05 282.57 143.81 L 279.37 127.14 Z" fill="#ff8d9d" fill-rule="evenodd" group-id="2" node-id="436" stroke="none" target-height="29.878006" target-width="21.100006" target-x="279.366" target-y="113.931"></path><path d="M 294.94 72.64 C 292.39 69.20 289.69 67.44 287.18 66.64 L 283.24 69.30 L 282.93 73.45 C 283.51 73.69 284.16 73.94 284.85 74.14 C 289.62 75.52 294.94 72.64 294.94 72.64" fill="#ffffff" fill-rule="evenodd" group-id="2" node-id="438" stroke="none" target-height="7.872162" target-width="12.014008" target-x="282.926" target-y="66.635"></path><path d="M 276.42 68.17 C 276.42 68.17 281.29 64.75 287.19 66.62 C 287.31 67.11 287.61 68.11 287.59 68.63 C 287.42 71.03 285.47 72.92 282.94 73.46 C 278.03 71.44 276.42 68.17 276.42 68.17" fill="#1a4e72" fill-rule="evenodd" group-id="2" node-id="440" stroke="none" target-height="7.383049" target-width="11.169983" target-x="276.419" target-y="66.07995"></path><path d="M 261.32 66.75 C 258.93 63.52 256.44 61.90 254.09 61.17 L 250.52 63.95 L 250.19 67.51 C 250.72 67.73 251.34 67.97 251.96 68.15 C 256.38 69.44 261.32 66.75 261.32 66.75" fill="#ffffff" fill-rule="evenodd" group-id="2" node-id="442" stroke="none" target-height="7.322216" target-width="11.135986" target-x="250.186" target-y="61.172"></path><path d="M 244.15 62.61 C 244.15 62.61 248.65 59.44 254.12 61.16 C 254.25 61.63 254.53 62.55 254.50 63.04 C 254.34 65.25 252.54 67.02 250.19 67.53 C 245.64 65.64 244.15 62.61 244.15 62.61" fill="#1a4e72" fill-rule="evenodd" group-id="2" node-id="444" stroke="none" target-height="6.8584137" target-width="10.354004" target-x="244.147" target-y="60.668587"></path><path d="M 281.08 83.27 C 278.30 86.79 278.90 91.92 282.42 94.72 C 285.96 97.49 291.08 96.90 293.87 93.37 C 296.66 89.83 296.06 84.70 292.53 81.92 C 289.00 79.14 283.88 79.73 281.08 83.27" fill="#ff8d9d" fill-rule="nonzero" group-id="2" node-id="446" stroke="none" target-height="16.184875" target-width="16.183044" target-x="279.3873" target-y="80.22335"></path><path d="M 248.17 84.51 C 246.37 86.79 243.41 87.87 240.70 87.57 C 240.72 87.23 241.47 76.71 243.04 71.45 C 244.42 71.64 245.65 72.13 246.82 73.05 C 250.36 75.85 250.96 80.97 248.17 84.51 Z" fill="#ff8d9d" fill-rule="nonzero" group-id="2" node-id="448" stroke="none" target-height="16.117996" target-width="9.163879" target-x="240.703" target-y="71.454"></path><path d="M 299.45 65.16 L 297.02 67.20 C 290.75 59.76 280.44 60.35 276.69 61.76 L 275.58 58.80 C 281.41 56.60 292.67 57.12 299.45 65.16 Z" fill="#e34e6a" fill-rule="evenodd" group-id="2" node-id="450" stroke="none" target-height="9.51445" target-width="23.875" target-x="275.578" target-y="57.685547"></path><path d="M 265.60 59.73 L 263.19 61.79 C 257.40 54.92 247.88 55.47 244.44 56.78 L 243.32 53.80 C 248.75 51.78 259.26 52.25 265.60 59.73 Z" fill="#e34e6a" fill-rule="evenodd" group-id="2" node-id="452" stroke="none" target-height="9.0124855" target-width="22.287003" target-x="243.316" target-y="52.775513"></path><path d="M 265.62 68.34 C 263.82 67.64 255.76 83.96 255.88 85.86 C 256.07 88.25 263.85 90.84 264.62 90.03 C 266.78 87.71 268.32 69.39 265.62 68.34" fill="#ff8d9d" fill-rule="evenodd" group-id="2" node-id="454" stroke="none" target-height="21.833893" target-width="11.171494" target-x="255.885" target-y="68.34"></path><path d="M 249.70 101.62 C 258.04 107.90 268.46 104.22 274.60 98.18 L 272.03 95.59 C 266.98 100.58 258.50 103.68 251.88 98.72 L 249.70 101.62 Z" fill="#ff8d9d" fill-rule="nonzero" group-id="2" node-id="456" stroke="none" target-height="9.273735" target-width="24.895004" target-x="249.701" target-y="95.589"></path><path d="M 287.10 4.51 C 284.45 4.52 282.03 4.57 280.10 4.66 C 258.62 5.66 244.46 12.84 238.13 28.17 C 233.77 38.72 234.04 58.04 234.77 73.49 C 234.93 76.96 235.59 86.49 238.46 86.25 C 240.70 86.08 241.22 79.41 241.48 77.86 C 243.38 66.76 244.02 56.52 248.87 51.00 C 254.50 44.59 265.22 43.78 275.40 41.93 C 282.20 40.70 288.46 38.93 293.53 35.89 C 299.02 32.59 302.96 28.60 306.62 24.81 C 309.28 22.05 311.89 19.08 313.96 15.38 C 304.94 11.93 295.96 8.41 287.10 4.51 Z" fill="#e34e6a" fill-rule="evenodd" group-id="2" node-id="458" stroke="none" target-height="81.742" target-width="79.602234" target-x="234.36176" target-y="4.513"></path><path d="M 305.99 9.78 C 315.08 9.20 327.74 9.77 335.53 13.14 C 348.98 18.95 357.00 31.97 360.04 47.72 C 361.75 56.53 361.73 66.08 361.05 75.59 C 360.23 87.12 359.67 100.14 363.40 109.17 C 369.24 123.31 382.17 133.99 391.27 146.78 C 396.05 153.50 399.37 159.66 403.02 167.93 C 406.04 174.75 410.66 185.60 407.72 193.78 C 403.15 206.50 385.05 203.53 375.15 209.56 C 368.25 213.77 365.99 221.48 362.73 230.72 C 356.67 247.91 349.88 267.11 334.19 274.03 C 319.73 280.41 305.25 271.61 301.62 260.60 C 298.22 250.30 303.42 239.71 302.29 228.71 C 300.74 213.57 287.55 206.06 288.52 189.75 C 288.93 182.91 292.13 176.78 295.24 171.96 C 298.43 167.01 302.96 162.93 304.64 156.85 C 306.63 149.67 304.24 142.47 304.31 134.02 C 304.39 123.16 309.88 113.33 314.38 106.15 C 318.50 99.57 327.18 88.80 325.12 79.29 C 323.27 70.73 316.66 65.39 310.68 59.81 C 304.66 54.20 298.60 48.40 294.90 41.68 C 293.35 38.86 290.78 33.24 290.54 28.25 C 290.23 21.73 292.80 13.66 296.92 11.12 C 299.09 9.79 302.55 10.01 305.99 9.78 Z" fill="#e34e6a" fill-rule="evenodd" group-id="2" node-id="460" stroke="none" target-height="266.5777" target-width="120.12863" target-x="288.5234" target-y="9.594426"></path><path d="M 339.13 89.47 C 335.31 95.65 323.15 103.12 317.72 99.78 C 312.30 96.44 315.68 83.55 319.49 77.36 C 323.30 71.18 330.79 68.87 336.21 72.22 C 341.63 75.56 342.94 83.29 339.13 89.47 Z" fill="#ffcbd5" fill-rule="evenodd" group-id="2" node-id="462" stroke="none" target-height="29.920403" target-width="26.3779" target-x="314.89325" target-y="70.69126"></path><path d="M 313.24 226.39 C 319.48 229.26 319.00 211.48 313.01 214.63 C 309.89 216.27 311.61 223.48 313.24 226.39 Z" fill="#ffffff" fill-rule="evenodd" group-id="2" node-id="464" stroke="none" target-height="12.418976" target-width="6.385132" target-x="311.32425" target-y="214.27473"></path><path d="M 320.07 236.22 C 319.49 234.89 317.57 232.48 314.99 233.86 C 311.62 235.65 311.31 243.31 310.62 246.32 C 309.76 249.98 306.51 256.50 309.63 259.38 C 314.07 263.47 317.35 253.03 318.32 249.39 C 318.84 247.46 319.16 245.51 319.52 243.86 C 320.13 241.01 321.20 238.78 320.07 236.22 Z" fill="#ffffff" fill-rule="evenodd" group-id="2" node-id="466" stroke="none" target-height="26.8656" target-width="12.237244" target-x="308.31183" target-y="233.45633"></path><path d="M 342.58 30.14 C 338.75 30.45 332.97 27.54 327.46 24.35 C 325.11 22.98 321.33 20.70 322.31 18.46 C 323.49 15.76 328.20 17.66 329.88 18.35 C 335.19 20.52 341.18 24.23 343.78 27.14 C 344.05 28.00 343.40 29.47 342.58 30.14 Z" fill="#ffffff" fill-rule="evenodd" group-id="2" node-id="468" stroke="none" target-height="13.058556" target-width="21.64093" target-x="322.1834" target-y="17.078444"></path><path d="M 324.70 29.87 C 323.34 35.90 310.82 30.75 313.30 26.25 C 314.37 24.29 321.35 24.52 323.86 26.74 C 324.76 27.54 324.93 28.82 324.70 29.87 Z" fill="#ffffff" fill-rule="evenodd" group-id="2" node-id="470" stroke="none" target-height="7.6637917" target-width="11.791107" target-x="312.99927" target-y="24.928799"></path><path d="M 294.79 11.51 C 294.54 13.70 291.47 14.57 288.30 14.26 C 285.76 14.01 281.00 12.38 282.19 9.69 C 282.71 8.50 285.08 7.47 287.71 7.66 C 290.81 7.88 295.12 8.70 294.79 11.51 Z" fill="#ffffff" fill-rule="evenodd" group-id="2" node-id="472" stroke="none" target-height="6.5979104" target-width="12.772949" target-x="282.01404" target-y="7.664"></path></g></svg>